<svg width="115" height="104" viewBox="0 0 115 104" fill="none" xmlns="http://www.w3.org/2000/svg">
<circle cx="105.816" cy="82.1017" r="1.605" fill="black"/>
<circle cx="38.8902" cy="17.6522" r="1.605" fill="black"/>
<path d="M26.6499 74.3029V75.8029C27.4783 75.8029 28.1499 75.1313 28.1499 74.3029H26.6499ZM26.6499 28.8566H28.1499C28.1499 28.0282 27.4783 27.3566 26.6499 27.3566V28.8566ZM53.1293 97.7353L54.1233 96.612L54.1233 96.612L53.1293 97.7353ZM27.6439 73.1796C27.0235 72.6306 26.0756 72.6885 25.5266 73.3089C24.9776 73.9292 25.0354 74.8772 25.6558 75.4262L27.6439 73.1796ZM25.1499 28.8566C25.1499 29.6851 25.8214 30.3566 26.6499 30.3566C27.4783 30.3566 28.1499 29.6851 28.1499 28.8566H25.1499ZM26.6499 28.8566L25.6558 27.7333C25.3341 28.018 25.1499 28.427 25.1499 28.8566H26.6499ZM42.2209 13.0743C41.6005 13.6233 41.5427 14.5713 42.0917 15.1917C42.6407 15.8121 43.5887 15.87 44.2091 15.321L42.2209 13.0743ZM53.1293 5.42422L52.1352 4.3009L52.1352 4.3009L53.1293 5.42422ZM35.9265 22.6505C36.5469 22.1015 36.6048 21.1535 36.0558 20.5331C35.5068 19.9127 34.5588 19.8548 33.9384 20.4038L35.9265 22.6505ZM3.91187 32.8566C3.91187 31.4759 5.03115 30.3566 6.41187 30.3566V27.3566C3.3743 27.3566 0.911865 29.8191 0.911865 32.8566H3.91187ZM3.91187 70.3029V32.8566H0.911865V70.3029H3.91187ZM6.41186 72.8029C5.03115 72.8029 3.91187 71.6836 3.91187 70.3029H0.911865C0.911865 73.3405 3.37429 75.8029 6.41186 75.8029V72.8029ZM26.6499 72.8029H6.41186V75.8029H26.6499V72.8029ZM25.1499 28.8566V74.3029H28.1499V28.8566H25.1499ZM6.41187 30.3566H26.6499V27.3566H6.41187V30.3566ZM58.2801 8.41974V94.7397H61.2801V8.41974H58.2801ZM54.1233 96.612L27.6439 73.1796L25.6558 75.4262L52.1352 98.8586L54.1233 96.612ZM28.1499 28.8566V28.8566H25.1499V28.8566H28.1499ZM44.2091 15.321L54.1233 6.54754L52.1352 4.3009L42.2209 13.0743L44.2091 15.321ZM27.6439 29.9799L35.9265 22.6505L33.9384 20.4038L25.6558 27.7333L27.6439 29.9799ZM58.2801 94.7397C58.2801 96.8943 55.7368 98.0398 54.1233 96.612L52.1352 98.8586C55.6849 102 61.2801 99.4796 61.2801 94.7397H58.2801ZM61.2801 8.41974C61.2801 3.67984 55.6849 1.15973 52.1352 4.3009L54.1233 6.54754C55.7368 5.11974 58.2801 6.26524 58.2801 8.41974H61.2801Z" fill="black"/>
<path d="M75.4406 41.439C78.0712 44.0152 79.7036 47.6068 79.7036 51.5797C79.7036 55.5526 78.0712 59.1442 75.4406 61.7205" stroke="black" stroke-width="3" stroke-linecap="round" stroke-linejoin="round"/>
<path d="M83.8899 23.3143C91.2223 30.4951 95.7722 40.5061 95.7722 51.5798C95.7722 62.6535 91.2223 72.6644 83.8899 79.8452" stroke="black" stroke-width="3" stroke-linecap="round" stroke-linejoin="round"/>
<path d="M91.8311 1.57977C104.802 14.2822 112.85 31.991 112.85 51.5798C112.85 60.5587 111.159 69.1427 108.078 77.0306M91.8311 101.58C96.239 97.263 100.078 92.368 103.227 87.0175" stroke="black" stroke-width="3" stroke-linecap="round" stroke-linejoin="round"/>
</svg>
