<svg width="79" height="101" viewBox="0 0 79 101" fill="none" xmlns="http://www.w3.org/2000/svg">
<circle cx="75.0595" cy="21.0001" r="1.605" fill="black"/>
<circle cx="24.0354" cy="99.359" r="1.605" fill="black"/>
<path d="M2.47437 35.4245C2.47437 17.9182 16.6661 3.72647 34.1724 3.72647C51.6788 3.72647 65.8705 17.9182 65.8705 35.4245C65.8705 46.6506 60.0346 56.5137 51.2312 62.1456C47.9561 64.2407 45.3826 67.4984 45.1163 71.3772L44.852 75.2272C44.4406 81.2203 43.6232 87.4715 39.7141 92.0327C37.6148 94.4821 34.845 96.7359 31.3596 98.1098M17.3664 98.5827C13.0166 97.1481 4.72656 91.3529 6.3641 79.6486" stroke="black" stroke-width="3" stroke-linecap="round"/>
<path d="M55.8819 34.947C55.8819 22.4517 45.7525 12.3224 33.2573 12.3224C20.7621 12.3224 10.6327 22.4517 10.6327 34.947" stroke="black" stroke-width="3" stroke-linecap="round" stroke-linejoin="round"/>
<ellipse cx="33.2573" cy="34.9469" rx="10.2347" ry="10.2347" stroke="black" stroke-width="3"/>
<path d="M64.4457 2.37708C66.8586 4.9169 70.9917 10.5881 73.0171 15.9381M64.4457 65.576C76.5463 52.0956 78.7117 38.3537 76.6362 26.8193" stroke="black" stroke-width="3" stroke-linecap="round" stroke-linejoin="round"/>
</svg>
