<svg width="103" height="102" viewBox="0 0 103 102" fill="none" xmlns="http://www.w3.org/2000/svg">
<ellipse cx="13.9369" cy="1.58583" rx="1.4673" ry="1.4673" fill="black"/>
<ellipse cx="66.7763" cy="66.2934" rx="1.4673" ry="1.4673" fill="black"/>
<path d="M22.0035 1.58582H19.3794M2.297 21.2924V5.58582C2.297 3.37668 4.08786 1.58582 6.297 1.58582H8.20896" stroke="black" stroke-width="3" stroke-linecap="round" stroke-linejoin="round"/>
<path d="M22.0035 100.119H6.297C4.08786 100.119 2.297 98.3277 2.297 96.1185V80.412" stroke="black" stroke-width="3" stroke-linecap="round" stroke-linejoin="round"/>
<path d="M81.1232 1.58582H96.8297C99.0389 1.58582 100.83 3.37668 100.83 5.58582V21.2924" stroke="black" stroke-width="3" stroke-linecap="round" stroke-linejoin="round"/>
<path d="M81.1232 100.119H96.8297C99.0389 100.119 100.83 98.3277 100.83 96.1185V80.412" stroke="black" stroke-width="3" stroke-linecap="round" stroke-linejoin="round"/>
<path d="M73.0086 72.3813L74.0692 71.3206L74.0627 71.3141L73.0086 72.3813ZM87.7225 88.5952C88.5509 88.5952 89.2225 87.9236 89.2225 87.0952L89.2225 73.5952C89.2225 72.7668 88.5509 72.0952 87.7225 72.0952C86.8941 72.0952 86.2225 72.7668 86.2225 73.5952V85.5952H74.2225C73.3941 85.5952 72.7225 86.2668 72.7225 87.0952C72.7225 87.9236 73.3941 88.5952 74.2225 88.5952L87.7225 88.5952ZM71.5716 68.8533C70.9822 68.2711 70.0325 68.277 69.4503 68.8663C68.8681 69.4557 68.8739 70.4054 69.4633 70.9876L71.5716 68.8533ZM71.9479 73.4419L86.6618 88.1559L88.7832 86.0346L74.0692 71.3206L71.9479 73.4419ZM69.4633 70.9876L71.9544 73.4484L74.0627 71.3141L71.5716 68.8533L69.4633 70.9876Z" fill="black"/>
<path d="M43.7714 45.0977C44.3572 45.6835 45.3069 45.6835 45.8927 45.0977C46.4785 44.5119 46.4785 43.5622 45.8927 42.9764L43.7714 45.0977ZM15.4041 13.1092C14.5757 13.1092 13.9041 13.7807 13.9041 14.6092L13.9041 28.1092C13.9041 28.9376 14.5757 29.6092 15.4041 29.6092C16.2326 29.6092 16.9041 28.9376 16.9041 28.1092L16.9041 16.1092L28.9041 16.1092C29.7326 16.1092 30.4041 15.4376 30.4041 14.6092C30.4041 13.7807 29.7326 13.1092 28.9041 13.1092L15.4041 13.1092ZM45.8927 42.9764L16.4648 13.5485L14.3435 15.6698L43.7714 45.0977L45.8927 42.9764Z" fill="black"/>
<path d="M58.2947 57.6673L63.0565 62.4291" stroke="black" stroke-width="3" stroke-linecap="round" stroke-linejoin="round"/>
</svg>
