<svg width="94" height="102" viewBox="0 0 94 102" fill="none" xmlns="http://www.w3.org/2000/svg">
<circle cx="88.68" cy="57.3942" r="1.60428" fill="black"/>
<circle cx="51.5022" cy="11.606" r="1.60428" fill="black"/>
<path d="M32.3601 99.7733V88.324C32.3601 86.1148 30.5693 84.324 28.3601 84.324H20.5866C17.8251 84.324 15.5866 82.0854 15.5866 79.324V65.7848H8.83671C5.07974 65.7848 2.66487 61.7963 4.40622 58.4673L14.6753 38.8351C15.2739 37.6907 15.5866 36.4185 15.5866 35.1271V33.2692C15.5866 27.9 16.1005 22.3942 18.9431 17.8392C24.9204 8.26107 38.0134 -2.00553 61.0517 3.54588C73.357 6.12211 96.5109 19.5734 90.684 52.7687M77.8253 99.7733V82.4305C77.8253 76.4033 80.9564 70.8917 84.466 65.9917C85.2365 64.916 85.9294 63.8238 86.5489 62.743" stroke="black" stroke-width="3" stroke-linecap="round" stroke-linejoin="round"/>
<circle cx="26.4908" cy="28.0672" r="2.72997" stroke="black" stroke-width="3"/>
<circle cx="25.7703" cy="37.3437" r="2.72997" stroke="black" stroke-width="3"/>
<circle cx="41.5981" cy="49.8022" r="2.72997" stroke="black" stroke-width="3"/>
<circle cx="45.0094" cy="58.3201" r="2.72997" stroke="black" stroke-width="3"/>
<circle cx="58.7523" cy="65.7751" r="2.72997" stroke="black" stroke-width="3"/>
<circle cx="68.5966" cy="76.8863" r="2.72997" stroke="black" stroke-width="3"/>
<circle cx="63.6256" cy="54.6642" r="2.72997" stroke="black" stroke-width="3"/>
<circle cx="51.4165" cy="39.6542" r="2.72997" stroke="black" stroke-width="3"/>
<circle cx="38.8683" cy="26.2037" r="2.72997" stroke="black" stroke-width="3"/>
<circle cx="52.6111" cy="19.5759" r="2.72997" stroke="black" stroke-width="3"/>
<circle cx="63.6256" cy="25.0359" r="2.72997" stroke="black" stroke-width="3"/>
<circle cx="71.3265" cy="33.4268" r="2.72997" stroke="black" stroke-width="3"/>
<circle cx="73.1785" cy="48.1788" r="2.72997" stroke="black" stroke-width="3"/>
<path d="M47.819 57.9915H49.6076C51.7347 57.9915 53.7842 58.7901 55.3504 60.2293L58.3026 62.942" stroke="black" stroke-width="3" stroke-linecap="round" stroke-linejoin="round"/>
<path d="M68.7957 74.3634V68.9168C68.7957 67.5511 68.4661 66.2055 67.835 64.9944L63.8235 57.2967M26.8677 24.91L38.1052 14.003C39.689 12.4657 41.8094 11.6059 44.0166 11.6059H45.7487M75.2461 46.5458L76.0124 45.995C78.2311 44.4004 79.5464 41.8352 79.5464 39.103V32.3597C79.5464 30.0079 78.5705 27.7615 76.8516 26.1563L63.7162 13.8901C62.1443 12.4223 60.0739 11.6059 57.9233 11.6059H57.0963M25.3895 40.2508V40.2508C25.3895 42.2977 26.1292 44.3057 27.4723 45.8503L28.2272 46.7185C29.8392 48.5723 32.1754 49.6367 34.6321 49.6367H38.7665M44.5602 49.6367H52.5805C54.7918 49.6367 56.9159 50.4997 58.5005 52.0421L60.4556 53.945" stroke="black" stroke-width="3" stroke-linecap="round" stroke-linejoin="round"/>
<path d="M38.6122 29.0949V29.0949C38.6122 31.9975 40.1525 34.6821 42.6583 36.147L48.7666 39.718" stroke="black" stroke-width="3" stroke-linecap="round" stroke-linejoin="round"/>
<path d="M52.4034 22.4896V24.7717C52.4034 27.2728 53.4319 29.6638 55.2475 31.3838V31.3838C56.9393 32.9866 59.1812 33.8799 61.5117 33.8799H68.4075" stroke="black" stroke-width="3" stroke-linecap="round" stroke-linejoin="round"/>
<path d="M75.6165 25.229H66.7432" stroke="black" stroke-width="3" stroke-linecap="round" stroke-linejoin="round"/>
<path d="M53.1064 27.9214L60.4779 25.085" stroke="black" stroke-width="3" stroke-linecap="round" stroke-linejoin="round"/>
<path d="M70.2818 36.3311L66.8172 38.7721C65.0119 40.044 63.9379 42.1144 63.9379 44.3228V51.1818" stroke="black" stroke-width="3" stroke-linecap="round" stroke-linejoin="round"/>
</svg>
