<svg width="118" height="107" viewBox="0 0 118 107" fill="none" xmlns="http://www.w3.org/2000/svg">
<ellipse cx="58.8241" cy="23.9157" rx="1.5" ry="1.5" fill="black"/>
<ellipse cx="85.0342" cy="83.7645" rx="1.5" ry="1.5" fill="black"/>
<path d="M57.3241 18.5347C57.3241 19.3632 57.9957 20.0347 58.8241 20.0347C59.6525 20.0347 60.3241 19.3632 60.3241 18.5347H57.3241ZM59.8848 1.0579C59.299 0.472111 58.3492 0.472111 57.7634 1.0579L48.2175 10.6038C47.6317 11.1896 47.6317 12.1394 48.2175 12.7252C48.8033 13.3109 49.753 13.3109 50.3388 12.7252L58.8241 4.23988L67.3094 12.7252C67.8952 13.3109 68.8449 13.3109 69.4307 12.7252C70.0165 12.1394 70.0165 11.1896 69.4307 10.6038L59.8848 1.0579ZM60.3241 18.5347V2.11856H57.3241V18.5347H60.3241Z" fill="black"/>
<path d="M58.8241 29.6119V68.4659" stroke="black" stroke-width="3" stroke-linecap="round" stroke-linejoin="round"/>
<path d="M80.0925 80.8532L58.777 68.5467" stroke="black" stroke-width="3" stroke-linecap="round" stroke-linejoin="round"/>
<path d="M0.16054 101.686C-0.0479546 102.487 0.432982 103.306 1.23474 103.515L14.3002 106.912C15.102 107.121 15.9209 106.64 16.1294 105.838C16.3379 105.036 15.857 104.218 15.0552 104.009L3.44149 100.989L6.46161 89.3751C6.6701 88.5734 6.18917 87.7544 5.38741 87.5459C4.58565 87.3374 3.76667 87.8184 3.55818 88.6201L0.16054 101.686ZM58.0645 67.1724L0.852682 100.77L2.37183 103.357L59.5837 69.7593L58.0645 67.1724Z" fill="black"/>
<path d="M90.7125 85.3471C89.9994 84.9255 89.0795 85.1618 88.6579 85.8749C88.2362 86.588 88.4725 87.5078 89.1856 87.9295L90.7125 85.3471ZM116.409 103.516C117.211 103.31 117.695 102.492 117.489 101.69L114.13 88.6143C113.924 87.8119 113.107 87.3286 112.304 87.5346C111.502 87.7407 111.019 88.5583 111.225 89.3606L114.21 100.983L102.587 103.969C101.785 104.175 101.301 104.992 101.507 105.795C101.714 106.597 102.531 107.08 103.333 106.874L116.409 103.516ZM89.1856 87.9295L115.272 103.354L116.799 100.772L90.7125 85.3471L89.1856 87.9295Z" fill="black"/>
</svg>
