<svg width="133" height="104" viewBox="0 0 133 104" fill="none" xmlns="http://www.w3.org/2000/svg">
<ellipse cx="34.4936" cy="17.599" rx="1.64133" ry="1.64133" fill="black"/>
<ellipse cx="109.933" cy="51.7942" rx="1.64133" ry="1.64133" fill="black"/>
<path d="M12.9581 62.5735C13.6997 75.0408 16.4535 85.6747 24.7314 85.6747C33.0093 85.6747 32.4253 68.4287 32.4253 52.123C32.4253 51.1991 32.402 36.9916 33.8081 23.9446M119.193 52.123C118.072 80.1947 115.32 84.8364 110.873 85.6747C102.394 87.273 99.1697 72.7213 99.1697 52.123C99.1697 13.1787 94.3055 3.6149 88.6179 2.34572C77.5499 -0.124054 77.4824 31.2668 76.0872 52.123C73.8428 85.6746 72.0813 101.726 66.0705 101.726C59.0404 101.726 56.4584 71.6447 55.5077 52.123C53.6796 14.5839 48.6013 -1.76725 40.4762 2.34572C38.4084 3.39242 36.8717 7.02324 35.7296 11.8823" stroke="black" stroke-width="3" stroke-linecap="round"/>
<path d="M2.21338 51.7941H104.208M130.548 51.7941H115.402" stroke="black" stroke-width="3" stroke-linecap="round"/>
</svg>
