<svg width="61" height="104" viewBox="0 0 61 104" fill="none" xmlns="http://www.w3.org/2000/svg">
<path d="M35.1165 59.3737C48.817 57.1094 59.2682 45.1634 59.2682 30.7666C59.2682 14.7541 46.3395 1.77332 30.3911 1.77332C25.1456 1.77332 20.2267 3.1776 15.987 5.63217M6.7783 14.0728C3.46202 18.7927 1.51414 24.5513 1.51414 30.7666C1.51414 43.1889 9.29518 53.7866 20.2307 57.9144" stroke="black" stroke-width="3" stroke-linecap="round" stroke-linejoin="round"/>
<path d="M25.9485 49.7483C17.4581 47.7236 11.1398 40.0235 11.1398 30.8337C11.1398 20.1002 19.7589 11.399 30.3912 11.399C41.0234 11.399 49.6425 20.1002 49.6425 30.8337C49.6425 37.0945 46.7099 42.6639 42.1559 46.2183" stroke="black" stroke-width="3" stroke-linecap="round" stroke-linejoin="round"/>
<path d="M36.2159 35.4632L35.0444 34.5265C34.6843 34.9768 34.6143 35.5936 34.8641 36.1132C35.1139 36.6328 35.6394 36.9632 36.2159 36.9632V35.4632ZM24.5664 35.4632V36.9632C25.143 36.9632 25.6685 36.6328 25.9183 36.1132C26.1681 35.5936 26.098 34.9768 25.738 34.5265L24.5664 35.4632ZM24.5493 35.4632V33.9632C23.7209 33.9632 23.0493 34.6348 23.0493 35.4632H24.5493ZM36.2332 35.4632H37.7332C37.7332 34.6348 37.0616 33.9632 36.2332 33.9632V35.4632ZM36.5306 30.2111C36.5306 31.8701 35.9658 33.3741 35.0444 34.5265L37.3875 36.3999C38.7298 34.7211 39.5306 32.558 39.5306 30.2111H36.5306ZM30.3912 23.5942C33.6975 23.5942 36.5306 26.4697 36.5306 30.2111H39.5306C39.5306 24.9868 35.5231 20.5942 30.3912 20.5942V23.5942ZM24.2518 30.2111C24.2518 26.4697 27.0849 23.5942 30.3912 23.5942V20.5942C25.2593 20.5942 21.2518 24.9868 21.2518 30.2111H24.2518ZM25.738 34.5265C24.8166 33.3741 24.2518 31.8701 24.2518 30.2111H21.2518C21.2518 32.558 22.0526 34.7211 23.3949 36.3999L25.738 34.5265ZM24.5493 36.9632H24.5664V33.9632H24.5493V36.9632ZM26.0493 42.9903V35.4632H23.0493V42.9903H26.0493ZM30.3913 47.3322C27.9933 47.3322 26.0493 45.3883 26.0493 42.9903H23.0493C23.0493 47.0451 26.3364 50.3322 30.3913 50.3322V47.3322ZM34.7332 42.9903C34.7332 45.3883 32.7892 47.3322 30.3913 47.3322V50.3322C34.4461 50.3322 37.7332 47.0451 37.7332 42.9903H34.7332ZM34.7332 35.4632V42.9903H37.7332V35.4632H34.7332ZM36.2159 36.9632H36.2332V33.9632H36.2159V36.9632Z" fill="black"/>
<path d="M26.1131 47.7626V64.8749C26.1131 67.2377 28.0284 69.153 30.3911 69.153V69.153C32.7539 69.153 34.6692 67.2377 34.6692 64.8749V47.7626" stroke="black" stroke-width="3" stroke-linecap="round" stroke-linejoin="round"/>
<path d="M30.3912 69.153V74.0704C30.3912 76.8318 28.1526 79.0704 25.3912 79.0704H16.3416C14.0594 79.0704 12.2093 80.9204 12.2093 83.2026V83.2026C12.2093 85.4848 14.0594 87.3348 16.3416 87.3348H30.3912" stroke="black" stroke-width="3" stroke-linecap="round" stroke-linejoin="round"/>
<path d="M42.5629 87.3348H46.6431C49.1535 87.3348 51.1885 89.3699 51.1885 91.8803V91.8803C51.1885 94.3907 49.1535 96.4257 46.6431 96.4257H34.611C31.6576 96.4257 29.2634 98.8199 29.2634 101.773V101.773" stroke="black" stroke-width="3" stroke-linecap="round" stroke-linejoin="round"/>
<circle cx="11.1398" cy="9.46423" r="1.60428" fill="black"/>
<circle cx="36.6414" cy="87.3348" r="1.60428" fill="black"/>
</svg>
