<svg width="119" height="103" viewBox="0 0 119 103" fill="none" xmlns="http://www.w3.org/2000/svg">
<ellipse cx="117.447" cy="59.6875" rx="1.48915" ry="1.48915" fill="black"/>
<circle cx="24.8699" cy="2.25654" r="1.48915" fill="black"/>
<path d="M101.313 41.3621V7.14825C101.313 4.44663 99.1232 2.25653 96.4215 2.25653H30.6469M85.0097 74.9617H7.10092C4.3993 74.9617 2.2092 72.7716 2.2092 70.07V7.14826C2.2092 4.44664 4.3993 2.25653 7.10092 2.25653H18.804" stroke="black" stroke-width="3" stroke-linecap="round" stroke-linejoin="round"/>
<path d="M117.447 65.2045V95.8757C117.447 98.5773 115.257 100.767 112.555 100.767H90.0713C87.3697 100.767 85.1796 98.5773 85.1796 95.8757V46.629C85.1796 43.9273 87.3697 41.7372 90.0713 41.7372H112.555C115.257 41.7372 117.447 43.9273 117.447 46.629V54.1093" stroke="black" stroke-width="3" stroke-linecap="round" stroke-linejoin="round"/>
<rect x="42.9234" y="74.9617" width="17.6757" height="15.4796" stroke="black" stroke-width="3" stroke-linecap="round" stroke-linejoin="round"/>
<path d="M2.20837 62.2587H85.16" stroke="black" stroke-width="3" stroke-linecap="round" stroke-linejoin="round"/>
<path d="M85.1787 86.8364H117.448" stroke="black" stroke-width="3" stroke-linecap="round" stroke-linejoin="round"/>
<path d="M97.27 93.4658H105.357" stroke="black" stroke-width="3" stroke-linecap="round" stroke-linejoin="round"/>
<path d="M99.1783 48.3109H103.448" stroke="black" stroke-width="3" stroke-linecap="round" stroke-linejoin="round"/>
<path d="M33.4946 90.4414H70.0278" stroke="black" stroke-width="3" stroke-linecap="round" stroke-linejoin="round"/>
</svg>
