<svg width="97" height="104" viewBox="0 0 97 104" fill="none" xmlns="http://www.w3.org/2000/svg">
<circle cx="35.9035" cy="6.04952" r="1.605" fill="black"/>
<circle cx="66.5169" cy="102.162" r="1.605" fill="black"/>
<ellipse cx="48.3136" cy="23.7061" rx="14.6689" ry="14.1606" stroke="black" stroke-width="3" stroke-linejoin="round"/>
<path d="M29.4293 37.9059C26.6342 34.1926 24.9857 29.6232 24.9857 24.682C24.9857 18.6311 27.4579 13.1376 31.4803 9.09131M67.1981 37.9059C69.9932 34.1926 71.6417 29.6232 71.6417 24.682C71.6417 12.2448 61.1974 2.16241 48.3137 2.16241C45.5862 2.16241 42.968 2.6143 40.535 3.44474" stroke="black" stroke-width="3" stroke-linecap="round"/>
<path d="M29.977 37.8666H23.3768C17.3016 37.8666 12.0737 42.1612 10.8943 48.1208L3.20623 86.9674C1.64934 94.8342 7.66939 102.162 15.6888 102.162H60.4377M67.5587 37.8666H73.2504C79.3256 37.8666 84.5535 42.1612 85.7329 48.1208L93.4209 86.9674C94.9778 94.8342 88.9578 102.162 80.9384 102.162H72.4207" stroke="black" stroke-width="3" stroke-linecap="round"/>
<path d="M36.5198 78.7517L34.3593 78.4601L31.1649 77.4528L28.2886 74.9476L26.8173 72.1508L26.3931 68.8504L26.857 65.6825L28.2886 62.899L31.2974 60.3143L34.4786 59.2539L36.6524 59.0949L39.0515 59.1479L42.3387 60.0359L44.0883 61.0035L45.4535 62.2362L46.3284 63.5882L46.8851 65.7885H44.0485L43.5714 64.3968L43.1207 63.7208L42.1796 62.8857L41.0795 62.2362L38.9189 61.6133L36.7186 61.494L34.5846 61.7326L32.7422 62.4616L30.7275 64.2775L29.8924 65.7753L29.4682 67.0875L29.3224 68.8504L29.508 70.7458L29.9322 72.0581L30.7275 73.5426L32.6096 75.2525L34.5051 75.9682L36.6656 76.3394L38.8394 76.2466L41.212 75.8754L42.9616 75.2127L44.0088 74.55V71.1965H36.8644V68.7444H46.8983V75.7694L44.3666 77.3865L41.994 78.2348L38.7731 78.7252L36.5198 78.7517ZM70.4123 78.4336H67.536V65.5897L60.0736 78.4336H58.1649L51.5773 66.1597V78.4336H48.8203V59.3865H51.1133L59.2253 74.5102L68 59.3865H70.4123V78.4336Z" fill="black"/>
</svg>
