<?xml version="1.0" encoding="UTF-8"?>
<svg id="a" data-name="Layer 1" xmlns="http://www.w3.org/2000/svg" viewBox="0 0 725.15 725.15">
  <defs>
    <style>
      .b {
        fill: #fe6800;
      }

      .b, .c, .d, .e, .f {
        stroke-width: 0px;
      }

      .c {
        fill: #000;
      }

      .d {
        fill: #125082;
      }

      .e {
        fill: #0c569c;
      }

      .f {
        fill: #fff;
      }
    </style>
  </defs>
  <path class="f" d="M131.36,335.32c1.65-.22,2.77-.5,3.9-.5,28.66-.02,57.32.07,85.98-.09,4.39-.02,4.24,2.3,4.24,5.36-.04,37.32-.03,74.65-.03,111.97v6.82c5.25,0,9.88,0,14.5,0,103.13.02,206.26.01,309.39.17,4.84,0,6.1-1.35,6.1-6.14-.13-96.65-.09-193.29-.09-289.94,0-1.79,0-3.58,0-5.82H225.26v112.69h-94.01v-112.96H44.23c-.09,1.79-.26,3.41-.26,5.03,0,97.31.02,194.62-.08,291.94,0,3.96,1.18,5.13,5.08,5.11,25.66-.13,51.32-.15,76.97.07,4.49.04,5.52-1.39,5.5-5.7-.17-37.49-.09-74.98-.09-112.47,0-1.79,0-3.58,0-5.53ZM680.9,244.04h-86.71v214.55c1.3.16,2.27.37,3.24.37,25.98.01,51.97-.1,77.95.1,4.45.03,5.92-.87,5.9-5.68-.16-67.97-.1-135.93-.1-203.9,0-1.79-.18-3.57-.28-5.44ZM637.61,156.82v.03c-12.48,0-24.97.24-37.44-.12-4.86-.14-6.24,1.34-6.19,6.07.24,18.97.2,37.93.14,56.9-.02,6.35.08,6.64,6.64,6.64,24.63,0,49.26-.13,73.89.11,4.97.05,6.12-1.65,6.07-6.32-.22-19.47-.19-38.94.04-58.41.05-4.14-1.41-5.03-5.2-4.97-12.64.2-25.29.07-37.94.07Z"/>
  <path class="e" d="M131.36,335.32c0,1.95,0,3.74,0,5.53,0,37.49-.08,74.98.09,112.47.02,4.31-1,5.74-5.5,5.7-25.66-.21-51.32-.19-76.97-.07-3.9.02-5.09-1.16-5.08-5.11.1-97.31.07-194.62.08-291.94,0-1.62.16-3.24.26-5.03h87.02v112.96h94.01v-112.69h330.09c0,2.24,0,4.03,0,5.82,0,96.65-.04,193.29.09,289.94,0,4.78-1.25,6.15-6.1,6.14-103.13-.16-206.26-.15-309.39-.17-4.62,0-9.25,0-14.5,0v-6.82c0-37.32-.02-74.65.03-111.97,0-3.05.15-5.38-4.24-5.36-28.66.16-57.32.07-85.98.09-1.12,0-2.25.28-3.9.5ZM448.37,381.47c-12.73,4.81-25.3,9.67-37.98,14.24-1.58.57-3.9.07-5.54-.67-15.99-7.21-27.66-19.31-37.65-33.37-2.25-3.17-2.42-5.24.17-8.54,12.16-15.45,21.89-32.18,25.62-51.88.25-1.31,2.49-2.84,4.05-3.22,10.88-2.61,17.75-10.74,17.32-21.85-.16-4.29-1.79-8.52-2.78-12.96,16.57-5.89,33.95-7.64,51.75-6.41,3.88.27,6.69.61,7.81,5.47,1.3,5.63,6.99,8.19,12.63,6.85,5.4-1.28,8.66-5.78,8.26-11.43-.41-5.76-4.55-9.75-10.43-10.08-5.66-.31-8.81,3.14-10.96,7.04-10.36,0-20.41-.82-30.26.23-9.85,1.05-19.47,4.08-29.25,5.96-1.45.28-3.42-.67-4.78-1.59-9.35-6.39-17.96-6.42-27.36-.05-1.03.7-3,1.34-3.81.84-9.86-6.09-19.59-12.39-29.8-18.93,1.23-.59,1.8-.9,2.39-1.14,44.65-17.32,90.75-23.07,138.3-17.31,3.74.45,6.11.98,7.27,5.53,2.1,8.2,10.6,12.26,18.56,9.92,7.82-2.29,12.4-9.99,10.67-17.93-1.7-7.82-9.16-12.94-17.27-11.69-7.05,1.09-11,5.67-13.04,12.7-49.21-6.84-97.07-1.72-144.59,16.33,8.36-12.67,16.59-23.82,23.34-35.81,4.96-8.82,11.25-12.34,21.25-12.76,19.24-.81,38.18.33,57.01,4.19.25,1.47.41,2.62.64,3.75.97,4.65,3.9,7.4,8.56,7.71,4.22.28,7.58-1.78,8.95-5.83,1.38-4.07.65-8.14-3.05-10.75-3.81-2.69-7.72-2.16-11.62.51-1.64,1.12-4.1,2.06-5.93,1.71-24.8-4.74-49.62-5.19-74.49-.84-21.73,3.8-43.23,8.69-62.2,20.52-13.99,8.72-25.36,20.5-30.36,36.56-4.9,15.73-5.81,32.01-2.96,48.45.58,3.34.18,7.69-1.57,10.43-5.17,8.09-11.01,15.79-17.03,23.28-5.12,6.36-4.36,10.87,3.62,12.57,5.8,1.24,7.28,4.23,6.73,9.37-.18,1.65-.07,3.36-.49,4.94-1.04,3.87-.38,6.65,4.17,7.32-4.07,5.84-3.84,12.79,1.14,14.98,3.79,1.66,3.73,4.04,3.71,7.06-.02,2.67.02,5.33.13,8,.44,10.78,4.34,15.25,15.13,15.65,8.45.31,16.98-.25,25.41-1.03,3.76-.34,6.21.46,8.62,3.32,5.79,6.87,12,13.4,17.79,20.27,2.44,2.9,4.43,3.1,7.57,1.05,5.29-3.45,10.95-6.33,16.35-9.63,25.9-15.81,52.11-30.93,82.11-38.57,6.31,5.77,11.79,6.79,17.37,2.94,4.86-3.35,6.57-9.45,4.21-15.07-2.16-5.15-7.84-8.09-13.52-7.01-6.91,1.31-9.68,5.79-9.94,16.62ZM549.86,255.11c-.01-7.73-6.27-13.8-14.13-13.71-7.8.09-13.91,6.36-13.76,14.12.15,7.83,6.38,13.92,14.14,13.81,7.74-.11,13.77-6.33,13.76-14.21ZM417.18,351.27c5.02.02,9.35-4.25,9.32-9.2-.03-5.16-4.06-9.17-9.23-9.2-5.26-.03-9.19,3.85-9.22,9.1-.02,5.11,4.07,9.27,9.13,9.29Z"/>
  <path class="e" d="M680.9,244.04c.1,1.86.28,3.65.28,5.44,0,67.97-.06,135.93.1,203.9.01,4.81-1.46,5.72-5.9,5.68-25.98-.2-51.97-.09-77.95-.1-.97,0-1.94-.22-3.24-.37v-214.55h86.71Z"/>
  <path class="b" d="M637.61,156.82c12.65,0,25.3.12,37.94-.07,3.79-.06,5.25.84,5.2,4.97-.22,19.47-.26,38.94-.04,58.41.05,4.67-1.09,6.37-6.07,6.32-24.63-.23-49.26-.1-73.89-.11-6.57,0-6.67-.29-6.64-6.64.06-18.97.1-37.94-.14-56.9-.06-4.73,1.33-6.22,6.19-6.07,12.47.36,24.96.12,37.44.12v-.03Z"/>
  <path class="f" d="M448.37,381.47c.26-10.84,3.03-15.31,9.94-16.62,5.69-1.08,11.37,1.86,13.52,7.01,2.35,5.62.65,11.72-4.21,15.07-5.58,3.85-11.06,2.83-17.37-2.94-30,7.65-56.21,22.77-82.11,38.57-5.4,3.3-11.06,6.17-16.35,9.63-3.14,2.05-5.13,1.84-7.57-1.05-5.79-6.87-12-13.4-17.79-20.27-2.41-2.86-4.86-3.67-8.62-3.32-8.44.77-16.96,1.34-25.41,1.03-10.79-.4-14.69-4.87-15.13-15.65-.11-2.66-.14-5.33-.13-8,.02-3.03.07-5.4-3.71-7.06-4.98-2.18-5.21-9.13-1.14-14.98-4.55-.67-5.21-3.45-4.17-7.32.42-1.58.31-3.29.49-4.94.55-5.14-.93-8.13-6.73-9.37-7.98-1.7-8.75-6.21-3.62-12.57,6.03-7.49,11.86-15.19,17.03-23.28,1.75-2.74,2.15-7.09,1.57-10.43-2.85-16.44-1.94-32.73,2.96-48.45,5-16.06,16.36-27.83,30.36-36.56,18.97-11.83,40.47-16.72,62.2-20.52,24.87-4.35,49.69-3.9,74.49.84,1.83.35,4.29-.59,5.93-1.71,3.9-2.67,7.81-3.19,11.62-.51,3.7,2.61,4.42,6.68,3.05,10.75-1.37,4.05-4.73,6.11-8.95,5.83-4.66-.31-7.59-3.06-8.56-7.71-.24-1.13-.39-2.28-.64-3.75-18.83-3.86-37.77-5-57.01-4.19-10,.42-16.29,3.93-21.25,12.76-6.74,11.99-14.98,23.14-23.34,35.81,47.52-18.05,95.38-23.17,144.59-16.33,2.04-7.03,6-11.61,13.04-12.7,8.11-1.25,15.57,3.87,17.27,11.69,1.73,7.94-2.85,15.63-10.67,17.93-7.97,2.33-16.47-1.73-18.56-9.92-1.16-4.55-3.53-5.08-7.27-5.53-47.56-5.76-93.65-.02-138.3,17.31-.6.23-1.16.55-2.39,1.14,10.21,6.54,19.93,12.84,29.8,18.93.81.5,2.78-.14,3.81-.84,9.4-6.37,18.01-6.34,27.36.05,1.36.93,3.33,1.87,4.78,1.59,9.78-1.88,19.4-4.91,29.25-5.96,9.85-1.05,19.9-.23,30.26-.23,2.15-3.9,5.3-7.35,10.96-7.04,5.88.32,10.02,4.32,10.43,10.08.4,5.64-2.86,10.15-8.26,11.43-5.64,1.34-11.34-1.22-12.63-6.85-1.12-4.86-3.93-5.2-7.81-5.47-17.8-1.23-35.18.52-51.75,6.41,1,4.43,2.62,8.67,2.78,12.96.42,11.11-6.44,19.24-17.32,21.85-1.57.38-3.8,1.9-4.05,3.22-3.73,19.7-13.46,36.42-25.62,51.88-2.59,3.29-2.43,5.36-.17,8.54,9.99,14.06,21.66,26.16,37.65,33.37,1.64.74,3.96,1.24,5.54.67,12.67-4.57,25.25-9.42,37.98-14.24ZM390.86,298.7c-10.85-1.88-17.71-7.74-19.98-18.25-7.14,7.63-14.22,15-21.02,22.64-1.14,1.28-1.57,3.71-1.43,5.53,1.3,16.47,6.22,31.84,14.68,46.51,13.32-16.89,24.48-34.44,27.75-56.43ZM352.31,367.51c3.09-3.42,6.16-6.82,8.81-9.75-3.45-8.35-7.18-15.98-9.75-23.98-2.6-8.11-4.05-16.59-6.1-25.34-6.4,5.65-13.14,11.45-19.64,17.49-.98.91-1.17,3.01-1.18,4.56-.04,6.31-.06,12.64.37,18.93.12,1.73,1.4,4.08,2.85,4.91,7.92,4.51,16.06,8.64,24.65,13.18ZM348.65,299.58c.38.24.76.48,1.14.72,5.06-5.64,9.8-11.62,15.27-16.82,5.99-5.7,5.7-13.89,9.79-20.67-9.66-6.25-19.06-12.33-29.23-18.91,1.04,19.23,2.03,37.45,3.02,55.68ZM343.14,240.39c10.86-16.48,21.34-32.38,32.14-48.76-8.81.46-16.15,2.22-21.48,8.9-1.45,1.81-3.37,3.22-4.97,4.92-7.03,7.46-14.03,14.96-21.14,22.55,4.53,3.64,9.69,7.78,15.45,12.4ZM354.45,368.62c9.59,5.04,18.59,9.76,27.83,14.61-6.78-7.98-13.26-15.59-19.95-23.45-2.38,2.67-4.89,5.49-7.88,8.84Z"/>
  <path class="f" d="M549.86,255.11c.01,7.88-6.01,14.1-13.76,14.21-7.76.11-13.99-5.98-14.14-13.81-.15-7.76,5.97-14.03,13.76-14.12,7.86-.09,14.12,5.99,14.13,13.71Z"/>
  <path class="f" d="M417.18,351.27c-5.06-.02-9.15-4.19-9.13-9.29.02-5.25,3.95-9.13,9.22-9.1,5.17.03,9.2,4.04,9.23,9.2.03,4.95-4.3,9.22-9.32,9.2Z"/>
  <path class="e" d="M390.86,298.7c-3.27,21.99-14.43,39.54-27.75,56.43-8.46-14.67-13.38-30.04-14.68-46.51-.14-1.83.29-4.25,1.43-5.53,6.8-7.63,13.88-15.01,21.02-22.64,2.27,10.51,9.12,16.37,19.98,18.25Z"/>
  <path class="e" d="M352.31,367.51c-8.59-4.54-16.73-8.66-24.65-13.18-1.45-.83-2.73-3.18-2.85-4.91-.43-6.29-.4-12.62-.37-18.93,0-1.55.2-3.65,1.18-4.56,6.5-6.05,13.24-11.84,19.64-17.49,2.05,8.75,3.5,17.23,6.1,25.34,2.57,8,6.3,15.63,9.75,23.98-2.64,2.93-5.72,6.33-8.81,9.75Z"/>
  <path class="e" d="M348.65,299.58c-.99-18.23-1.98-36.45-3.02-55.68,10.17,6.57,19.57,12.66,29.23,18.91-4.09,6.79-3.81,14.97-9.79,20.67-5.47,5.21-10.21,11.19-15.27,16.82-.38-.24-.76-.48-1.14-.72Z"/>
  <path class="e" d="M343.14,240.39c-5.76-4.62-10.92-8.76-15.45-12.4,7.11-7.6,14.11-15.09,21.14-22.55,1.6-1.7,3.53-3.11,4.97-4.92,5.34-6.67,12.67-8.44,21.48-8.9-10.8,16.38-21.28,32.28-32.14,48.76Z"/>
  <path class="e" d="M354.45,368.62c2.99-3.35,5.5-6.17,7.88-8.84,6.68,7.86,13.16,15.47,19.95,23.45-9.24-4.85-18.24-9.58-27.83-14.61Z"/>
  <g>
    <path class="c" d="M58.01,522.82h-15.75v-4.77h4.41v-17.36h-4.41v-4.77h15.75v4.77h-4.41v17.36h4.41v4.77Z"/>
    <path class="c" d="M77.32,522.82h-15.75v-4.77h4.41v-17.36h-4.41v-4.77h15.75v4.77h-4.41v17.36h4.41v4.77Z"/>
    <path class="c" d="M103.13,501.12h-8.4v21.7h-6.94v-21.7h-8.4v-5.2h23.74v5.2Z"/>
    <path class="c" d="M146.37,522.82h-6.9v-18.01l-4.99,11.69h-4.79l-4.99-11.69v18.01h-6.54v-26.9h8.06l6.05,13.5,6.03-13.5h8.06v26.9Z"/>
    <path class="c" d="M164.28,520.67c-.35.26-.78.58-1.3.96-.52.37-1.01.67-1.46.89-.64.29-1.3.5-1.99.64-.69.14-1.44.21-2.26.21-1.93,0-3.54-.6-4.84-1.79s-1.95-2.72-1.95-4.57c0-1.48.33-2.69.99-3.63.66-.94,1.6-1.68,2.82-2.22,1.2-.54,2.7-.93,4.48-1.16,1.78-.23,3.63-.4,5.55-.51v-.11c0-1.12-.46-1.89-1.37-2.32-.92-.43-2.26-.64-4.05-.64-1.07,0-2.22.19-3.43.57-1.22.38-2.09.67-2.62.88h-.6v-4.9c.69-.18,1.8-.39,3.35-.64,1.55-.25,3.1-.37,4.65-.37,3.7,0,6.37.57,8.01,1.71,1.64,1.14,2.47,2.92,2.47,5.36v13.8h-6.45v-2.15ZM164.28,517.51v-4.21c-.88.07-1.83.17-2.85.3-1.02.13-1.8.27-2.33.44-.65.2-1.15.5-1.49.89-.34.39-.51.9-.51,1.54,0,.42.04.76.11,1.03.07.26.25.52.54.76.28.24.61.42.99.53.39.11.99.17,1.81.17.65,0,1.31-.13,1.98-.4.67-.26,1.26-.61,1.76-1.04Z"/>
    <path class="c" d="M196.2,522.82h-6.52v-10.06c0-.82-.04-1.64-.13-2.45-.08-.81-.23-1.41-.43-1.8-.24-.45-.59-.77-1.06-.98-.46-.2-1.11-.31-1.94-.31-.59,0-1.19.1-1.8.29-.61.19-1.27.5-1.98.92v14.38h-6.52v-20.29h6.52v2.24c1.15-.9,2.26-1.6,3.33-2.08,1.06-.48,2.25-.72,3.55-.72,2.19,0,3.9.64,5.13,1.92,1.23,1.28,1.85,3.19,1.85,5.73v13.21Z"/>
    <path class="c" d="M221.02,522.82h-6.52v-2.11c-1.12.92-2.17,1.59-3.14,2.02-.97.43-2.1.65-3.37.65-2.47,0-4.44-.95-5.92-2.85-1.48-1.9-2.22-4.47-2.22-7.7,0-1.72.25-3.25.75-4.58s1.18-2.47,2.05-3.42c.82-.9,1.81-1.6,2.98-2.1s2.33-.75,3.5-.75,2.21.13,2.99.39c.78.26,1.57.59,2.39.98v-8.64h6.52v28.11ZM214.5,517.24v-9.97c-.46-.19-.94-.33-1.44-.42-.5-.08-.97-.13-1.39-.13-1.71,0-2.99.53-3.84,1.6-.85,1.07-1.28,2.55-1.28,4.44,0,1.99.34,3.44,1.03,4.33.68.9,1.78,1.35,3.3,1.35.59,0,1.21-.11,1.87-.33.66-.22,1.24-.52,1.75-.88Z"/>
    <path class="c" d="M232.97,499.64h-6.88v-4.93h6.88v4.93ZM232.79,522.82h-6.52v-20.29h6.52v20.29Z"/>
    <path class="c" d="M256.49,499.64h-6.88v-4.93h6.88v4.93ZM256.31,522.82h-6.52v-20.29h6.52v20.29Z"/>
    <path class="c" d="M286.03,522.82h-6.94v-11.85h-10.24v11.85h-6.94v-26.9h6.94v9.85h10.24v-9.85h6.94v26.9Z"/>
    <path class="c" d="M311.86,522.82h-6.52v-2.24c-1.2.92-2.3,1.61-3.3,2.09-1,.48-2.19.71-3.57.71-2.24,0-3.96-.64-5.17-1.93-1.21-1.29-1.81-3.19-1.81-5.71v-13.21h6.52v10.06c0,1.02.03,1.88.1,2.56.07.68.22,1.24.46,1.69.23.45.58.77,1.04.98.46.21,1.11.31,1.94.31.55,0,1.17-.1,1.84-.31.67-.21,1.32-.51,1.95-.9v-14.38h6.52v20.29Z"/>
    <path class="c" d="M338.29,512.4c0,3.19-.88,5.79-2.64,7.8s-3.96,3.02-6.6,3.02c-1.13,0-2.12-.12-2.98-.36-.85-.24-1.67-.59-2.44-1.05l-.27,1.01h-6.25v-28.11h6.52v9.94c1-.79,2.02-1.44,3.06-1.93s2.24-.74,3.6-.74c2.56,0,4.54.92,5.92,2.77s2.08,4.4,2.08,7.65ZM331.59,512.53c0-1.8-.31-3.19-.92-4.17s-1.71-1.46-3.28-1.46c-.61,0-1.24.09-1.89.28s-1.27.45-1.86.8v10.17c.47.17.91.28,1.33.34.42.06.93.09,1.51.09,1.72,0,3-.5,3.84-1.51s1.26-2.53,1.26-4.55Z"/>
    <path class="c" d="M383.34,522.82h-8.6l-2.5-2.28c-1.21.95-2.53,1.66-3.99,2.13-1.45.47-2.99.71-4.6.71-3.33,0-5.94-.77-7.84-2.3-1.9-1.54-2.85-3.54-2.85-6.01,0-1.02.15-1.92.45-2.67s.7-1.44,1.19-2.04c.47-.59,1.01-1.1,1.63-1.52.61-.42,1.2-.78,1.75-1.08-.51-.37-.99-.76-1.45-1.17-.46-.41-.86-.86-1.19-1.34-.32-.46-.58-.97-.76-1.54-.18-.57-.27-1.2-.27-1.92,0-.84.18-1.63.54-2.38.36-.74.9-1.41,1.63-2,.75-.61,1.75-1.11,3.01-1.49,1.26-.38,2.76-.57,4.49-.57,1.46,0,2.76.15,3.9.43,1.14.29,2.11.7,2.89,1.23.73.51,1.3,1.12,1.69,1.83.39.72.59,1.49.59,2.32,0,.55-.08,1.16-.24,1.83-.16.66-.46,1.29-.89,1.88-.47.63-1.09,1.21-1.86,1.75-.77.54-1.83,1.02-3.16,1.45l5.53,4.85v-5.81h6.74v2.01c0,1.42-.24,2.78-.72,4.09-.48,1.3-1.14,2.38-1.99,3.24l6.88,6.01v.36ZM369.03,517.49l-7.7-6.85c-.24.24-.53.67-.84,1.29-.32.62-.48,1.31-.48,2.07,0,.81.16,1.5.47,2.09.31.58.7,1.06,1.16,1.44.48.39,1.02.67,1.61.87.59.19,1.17.29,1.73.29.82,0,1.54-.08,2.18-.24.63-.16,1.26-.48,1.87-.95ZM366.32,501.97c0-.63-.1-1.12-.29-1.49s-.43-.65-.71-.84c-.29-.19-.59-.31-.9-.36-.31-.05-.57-.07-.76-.07-.2,0-.44.02-.7.07s-.54.17-.86.38c-.25.17-.48.42-.67.75s-.29.77-.29,1.31c0,.71.29,1.4.87,2.06.58.66,1.33,1.34,2.26,2.04.67-.53,1.18-1.12,1.53-1.76.34-.64.51-1.34.51-2.09Z"/>
    <path class="c" d="M421.11,522.82h-6.94v-11.85h-10.24v11.85h-6.94v-26.9h6.94v9.85h10.24v-9.85h6.94v26.9Z"/>
    <path class="c" d="M439.25,523.34c-2,0-3.85-.3-5.54-.89s-3.15-1.47-4.36-2.64c-1.22-1.17-2.16-2.62-2.83-4.37-.67-1.75-1-3.76-1-6.05,0-2.13.32-4.07.96-5.8s1.57-3.22,2.78-4.46c1.17-1.19,2.62-2.11,4.34-2.76s3.62-.98,5.66-.98c1.13,0,2.15.06,3.06.19.91.13,1.75.29,2.52.5.81.23,1.54.49,2.2.77.66.28,1.23.55,1.73.79v6.52h-.79c-.34-.29-.76-.63-1.27-1.02-.51-.4-1.09-.79-1.74-1.17-.66-.38-1.38-.71-2.15-.97s-1.6-.4-2.47-.4c-.98,0-1.9.15-2.78.46-.88.31-1.69.81-2.44,1.52-.71.69-1.29,1.59-1.73,2.72s-.66,2.5-.66,4.11.24,3.09.71,4.22c.48,1.13,1.07,2.02,1.8,2.67.74.66,1.55,1.13,2.46,1.42.9.28,1.79.42,2.67.42s1.68-.13,2.5-.38c.82-.25,1.59-.59,2.29-1.02.59-.35,1.14-.72,1.64-1.11s.92-.74,1.25-1.02h.72v6.43c-.67.3-1.32.58-1.93.85-.62.27-1.26.49-1.93.69-.88.25-1.7.45-2.47.58-.77.13-1.83.2-3.18.2Z"/>
    <path class="c" d="M467.52,522.82h-15.75v-4.77h4.41v-17.36h-4.41v-4.77h15.75v4.77h-4.41v17.36h4.41v4.77Z"/>
    <path class="c" d="M503.32,501.12h-12.38v5h11.47v5.2h-11.47v11.49h-6.9v-26.9h19.28v5.2Z"/>
    <path class="c" d="M527.6,512.69c0,3.34-.97,5.96-2.92,7.89s-4.68,2.88-8.19,2.88-6.25-.96-8.19-2.88c-1.95-1.92-2.92-4.55-2.92-7.89s.98-6,2.94-7.91,4.68-2.87,8.18-2.87,6.28.96,8.21,2.89c1.93,1.93,2.9,4.56,2.9,7.9ZM519.6,517.62c.42-.52.74-1.14.95-1.87.21-.73.32-1.74.32-3.03,0-1.19-.11-2.19-.32-3s-.52-1.45-.9-1.93c-.38-.49-.85-.84-1.39-1.05-.54-.2-1.13-.31-1.75-.31s-1.18.08-1.67.25c-.49.17-.95.51-1.4,1.01-.4.47-.71,1.11-.95,1.93-.23.82-.35,1.85-.35,3.09,0,1.11.1,2.07.31,2.88.21.81.51,1.47.9,1.96.39.47.85.81,1.38,1.03s1.15.33,1.83.33c.59,0,1.15-.1,1.69-.3.54-.2.99-.53,1.36-1Z"/>
    <path class="c" d="M551.59,522.82h-6.52v-2.24c-1.2.92-2.3,1.61-3.3,2.09-1,.48-2.19.71-3.57.71-2.24,0-3.96-.64-5.17-1.93-1.21-1.29-1.81-3.19-1.81-5.71v-13.21h6.52v10.06c0,1.02.03,1.88.1,2.56.07.68.22,1.24.46,1.69.23.45.58.77,1.04.98s1.11.31,1.94.31c.55,0,1.17-.1,1.84-.31s1.33-.51,1.95-.9v-14.38h6.52v20.29Z"/>
    <path class="c" d="M577.22,522.82h-6.52v-10.06c0-.82-.04-1.64-.13-2.45-.08-.81-.23-1.41-.43-1.8-.24-.45-.59-.77-1.06-.98-.46-.2-1.11-.31-1.94-.31-.59,0-1.19.1-1.8.29s-1.27.5-1.98.92v14.38h-6.52v-20.29h6.52v2.24c1.15-.9,2.26-1.6,3.33-2.08,1.06-.48,2.25-.72,3.55-.72,2.19,0,3.9.64,5.13,1.92,1.23,1.28,1.85,3.19,1.85,5.73v13.21Z"/>
    <path class="c" d="M602.04,522.82h-6.52v-2.11c-1.12.92-2.17,1.59-3.14,2.02s-2.1.65-3.37.65c-2.47,0-4.44-.95-5.92-2.85-1.48-1.9-2.22-4.47-2.22-7.7,0-1.72.25-3.25.75-4.58s1.18-2.47,2.05-3.42c.82-.9,1.81-1.6,2.98-2.1s2.33-.75,3.5-.75,2.21.13,2.99.39,1.57.59,2.39.98v-8.64h6.52v28.11ZM595.52,517.24v-9.97c-.46-.19-.94-.33-1.44-.42-.5-.08-.97-.13-1.39-.13-1.71,0-2.99.53-3.84,1.6-.85,1.07-1.28,2.55-1.28,4.44,0,1.99.34,3.44,1.03,4.33.69.9,1.79,1.35,3.3,1.35.59,0,1.21-.11,1.88-.33.66-.22,1.24-.52,1.75-.88Z"/>
    <path class="c" d="M619.58,520.67c-.35.26-.78.58-1.3.96-.52.37-1.01.67-1.46.89-.64.29-1.3.5-1.99.64-.69.14-1.44.21-2.26.21-1.93,0-3.54-.6-4.84-1.79s-1.95-2.72-1.95-4.57c0-1.48.33-2.69.99-3.63.66-.94,1.6-1.68,2.82-2.22,1.21-.54,2.7-.93,4.48-1.16,1.78-.23,3.63-.4,5.55-.51v-.11c0-1.12-.46-1.89-1.37-2.32s-2.26-.64-4.05-.64c-1.07,0-2.22.19-3.43.57-1.22.38-2.09.67-2.62.88h-.6v-4.9c.69-.18,1.8-.39,3.35-.64,1.55-.25,3.1-.37,4.65-.37,3.7,0,6.37.57,8.01,1.71,1.64,1.14,2.47,2.92,2.47,5.36v13.8h-6.45v-2.15ZM619.58,517.51v-4.21c-.88.07-1.83.17-2.85.3s-1.8.27-2.33.44c-.65.2-1.15.5-1.49.89-.34.39-.51.9-.51,1.54,0,.42.04.76.11,1.03.07.26.25.52.54.76.28.24.61.42.99.53.38.11.99.17,1.81.17.65,0,1.31-.13,1.98-.4.67-.26,1.26-.61,1.76-1.04Z"/>
    <path class="c" d="M644.1,522.64c-.7.18-1.44.32-2.22.42-.78.1-1.74.15-2.87.15-2.53,0-4.41-.51-5.65-1.54-1.24-1.02-1.85-2.78-1.85-5.26v-9.48h-2.67v-4.41h2.67v-5.8h6.52v5.8h6.07v4.41h-6.07v7.2c0,.71,0,1.33.02,1.86.01.53.11,1.01.29,1.43.17.42.46.76.89,1,.43.25,1.05.37,1.87.37.34,0,.78-.07,1.32-.22.55-.14.93-.28,1.14-.4h.54v4.45Z"/>
    <path class="c" d="M653.79,499.64h-6.88v-4.93h6.88v4.93ZM653.61,522.82h-6.52v-20.29h6.52v20.29Z"/>
    <path class="c" d="M679.59,512.69c0,3.34-.97,5.96-2.92,7.89s-4.68,2.88-8.19,2.88-6.25-.96-8.19-2.88c-1.95-1.92-2.92-4.55-2.92-7.89s.98-6,2.94-7.91,4.68-2.87,8.18-2.87,6.28.96,8.21,2.89c1.93,1.93,2.9,4.56,2.9,7.9ZM671.59,517.62c.42-.52.74-1.14.95-1.87.21-.73.32-1.74.32-3.03,0-1.19-.11-2.19-.32-3s-.52-1.45-.9-1.93c-.38-.49-.85-.84-1.39-1.05-.54-.2-1.13-.31-1.75-.31s-1.18.08-1.67.25c-.49.17-.95.51-1.4,1.01-.4.47-.71,1.11-.95,1.93-.23.82-.35,1.85-.35,3.09,0,1.11.1,2.07.31,2.88.21.81.51,1.47.9,1.96.39.47.85.81,1.38,1.03s1.15.33,1.83.33c.59,0,1.15-.1,1.69-.3.54-.2.99-.53,1.36-1Z"/>
    <path class="c" d="M703.74,522.82h-6.52v-10.06c0-.82-.04-1.64-.13-2.45-.08-.81-.23-1.41-.43-1.8-.24-.45-.59-.77-1.06-.98-.46-.2-1.11-.31-1.94-.31-.59,0-1.19.1-1.8.29s-1.27.5-1.98.92v14.38h-6.52v-20.29h6.52v2.24c1.15-.9,2.26-1.6,3.33-2.08,1.06-.48,2.25-.72,3.55-.72,2.19,0,3.9.64,5.13,1.92,1.23,1.28,1.85,3.19,1.85,5.73v13.21Z"/>
  </g>
  <g>
    <path class="d" d="M98,546.82h-6.75v16.67h-2.51v-16.67h-6.75v-2.23h16.02v2.23Z"/>
    <path class="d" d="M109.5,556.65h-10.45c0,.87.13,1.63.39,2.28s.62,1.18,1.08,1.59c.44.41.96.71,1.57.91s1.27.3,2,.3c.96,0,1.94-.19,2.91-.58.98-.39,1.67-.76,2.09-1.14h.13v2.6c-.8.34-1.62.62-2.46.85s-1.72.34-2.64.34c-2.35,0-4.19-.64-5.51-1.91-1.32-1.27-1.98-3.08-1.98-5.43s.63-4.16,1.9-5.52c1.27-1.36,2.93-2.04,5-2.04,1.91,0,3.39.56,4.42,1.68s1.56,2.7,1.56,4.76v1.29ZM107.18,554.82c0-1.25-.32-2.22-.95-2.91s-1.57-1.03-2.84-1.03-2.3.38-3.05,1.13c-.76.75-1.19,1.69-1.29,2.81h8.12Z"/>
    <path class="d" d="M123.69,562.6c-.8.38-1.55.68-2.27.89-.72.21-1.47.32-2.28.32-1.02,0-1.96-.15-2.82-.45-.85-.3-1.59-.76-2.2-1.37-.62-.61-1.1-1.38-1.43-2.31-.34-.93-.51-2.02-.51-3.26,0-2.32.64-4.14,1.91-5.46s2.96-1.98,5.05-1.98c.81,0,1.61.11,2.39.34s1.5.51,2.15.84v2.65h-.13c-.73-.57-1.48-1-2.25-1.31s-1.53-.46-2.27-.46c-1.35,0-2.42.46-3.21,1.37-.78.91-1.17,2.25-1.17,4s.38,3.02,1.15,3.94c.77.92,1.84,1.38,3.23,1.38.48,0,.97-.06,1.47-.19s.95-.29,1.35-.5c.35-.18.67-.37.98-.56.3-.2.55-.37.72-.51h.13v2.63Z"/>
    <path class="d" d="M138.68,563.49h-2.39v-8.07c0-.65-.04-1.26-.11-1.83s-.22-1.02-.42-1.34c-.21-.36-.52-.62-.91-.79-.4-.17-.91-.26-1.55-.26s-1.33.16-2.04.48c-.71.32-1.39.73-2.04,1.23v10.59h-2.39v-19.75h2.39v7.15c.74-.62,1.52-1.1,2.31-1.45.8-.35,1.61-.52,2.45-.52,1.53,0,2.7.46,3.5,1.38.8.92,1.21,2.25,1.21,3.99v9.2Z"/>
    <path class="d" d="M155.21,563.49h-2.39v-8.07c0-.65-.04-1.26-.11-1.83s-.22-1.02-.42-1.34c-.21-.36-.52-.62-.91-.79-.4-.17-.91-.26-1.55-.26s-1.33.16-2.04.48c-.71.32-1.39.73-2.04,1.23v10.59h-2.39v-14.18h2.39v1.57c.74-.62,1.52-1.1,2.31-1.45.8-.35,1.61-.52,2.45-.52,1.53,0,2.7.46,3.5,1.38.8.92,1.21,2.25,1.21,3.99v9.2Z"/>
    <path class="d" d="M171.97,556.41c0,2.31-.59,4.13-1.78,5.47-1.19,1.34-2.77,2.01-4.76,2.01s-3.6-.67-4.78-2.01c-1.18-1.34-1.77-3.16-1.77-5.47s.59-4.14,1.77-5.48c1.18-1.34,2.77-2.01,4.78-2.01s3.58.67,4.76,2.01c1.19,1.34,1.78,3.17,1.78,5.48ZM169.51,556.41c0-1.84-.36-3.2-1.08-4.09-.72-.89-1.72-1.34-3-1.34s-2.3.45-3.02,1.34c-.72.89-1.07,2.26-1.07,4.09s.36,3.12,1.08,4.04c.72.92,1.72,1.38,3.01,1.38s2.27-.46,2.99-1.36c.72-.91,1.09-2.26,1.09-4.06Z"/>
    <path class="d" d="M178.16,563.49h-2.39v-19.75h2.39v19.75Z"/>
    <path class="d" d="M195.04,556.41c0,2.31-.59,4.13-1.78,5.47-1.19,1.34-2.77,2.01-4.76,2.01s-3.6-.67-4.78-2.01c-1.18-1.34-1.77-3.16-1.77-5.47s.59-4.14,1.77-5.48c1.18-1.34,2.77-2.01,4.78-2.01s3.58.67,4.76,2.01c1.19,1.34,1.78,3.17,1.78,5.48ZM192.58,556.41c0-1.84-.36-3.2-1.08-4.09-.72-.89-1.72-1.34-3-1.34s-2.3.45-3.02,1.34c-.72.89-1.07,2.26-1.07,4.09s.36,3.12,1.08,4.04c.72.92,1.72,1.38,3.01,1.38s2.27-.46,2.99-1.36c.72-.91,1.09-2.26,1.09-4.06Z"/>
    <path class="d" d="M210.32,561.88c0,2.4-.55,4.17-1.64,5.29-1.09,1.13-2.77,1.69-5.04,1.69-.75,0-1.49-.05-2.2-.16-.72-.11-1.42-.26-2.11-.45v-2.44h.13c.39.15,1.01.34,1.85.57.85.22,1.69.34,2.54.34s1.49-.1,2.02-.29c.53-.19.95-.46,1.24-.81.3-.33.51-.73.63-1.19.13-.46.19-.99.19-1.56v-1.29c-.72.58-1.41,1-2.06,1.29-.66.28-1.49.42-2.51.42-1.69,0-3.04-.61-4.03-1.83-.99-1.22-1.49-2.95-1.49-5.17,0-1.22.17-2.27.51-3.15.34-.88.81-1.65,1.4-2.29.55-.6,1.22-1.07,2.01-1.4.79-.33,1.57-.5,2.35-.5.82,0,1.51.08,2.06.25s1.14.42,1.76.75l.15-.61h2.23v12.57ZM207.93,559.59v-7.73c-.63-.29-1.23-.49-1.77-.62-.55-.12-1.09-.18-1.63-.18-1.31,0-2.34.44-3.1,1.32-.75.88-1.13,2.16-1.13,3.83s.28,2.8.84,3.62c.56.82,1.49,1.23,2.78,1.23.69,0,1.39-.13,2.09-.4s1.34-.62,1.92-1.07Z"/>
    <path class="d" d="M227.36,549.31l-8.28,19.41h-2.55l2.64-5.92-5.65-13.5h2.59l4.35,10.51,4.39-10.51h2.5Z"/>
    <path class="d" d="M242.34,546.94h-2.69v-2.48h2.69v2.48ZM242.19,563.49h-2.39v-14.18h2.39v14.18Z"/>
    <path class="d" d="M258.85,563.49h-2.39v-8.07c0-.65-.04-1.26-.11-1.83s-.22-1.02-.42-1.34c-.21-.36-.52-.62-.91-.79-.4-.17-.91-.26-1.55-.26s-1.33.16-2.04.48c-.71.32-1.39.73-2.04,1.23v10.59h-2.39v-14.18h2.39v1.57c.74-.62,1.52-1.1,2.31-1.45.8-.35,1.61-.52,2.45-.52,1.53,0,2.7.46,3.5,1.38.8.92,1.21,2.25,1.21,3.99v9.2Z"/>
    <path class="d" d="M287.39,563.49h-2.51v-9.25h-9.43v9.25h-2.51v-18.9h2.51v7.41h9.43v-7.41h2.51v18.9Z"/>
    <path class="d" d="M303.37,563.49h-2.37v-1.51c-.21.14-.5.34-.86.6-.36.26-.71.46-1.05.62-.4.2-.85.36-1.37.49-.52.13-1.12.2-1.82.2-1.28,0-2.36-.42-3.25-1.27-.89-.85-1.33-1.92-1.33-3.24,0-1.07.23-1.94.69-2.61.46-.67,1.12-1.19,1.97-1.57.86-.38,1.9-.64,3.11-.77,1.21-.13,2.51-.24,3.9-.3v-.37c0-.54-.1-.99-.29-1.35-.19-.36-.46-.63-.82-.84-.34-.19-.75-.33-1.22-.39-.47-.07-.97-.1-1.49-.1-.63,0-1.32.08-2.09.25s-1.57.4-2.39.72h-.13v-2.42c.47-.13,1.14-.27,2.02-.42s1.75-.23,2.6-.23c1,0,1.87.08,2.61.25.74.17,1.38.45,1.92.84.53.39.94.89,1.22,1.51.28.62.42,1.38.42,2.3v9.62ZM301,560v-3.95c-.73.04-1.58.11-2.57.19-.99.08-1.77.21-2.34.37-.69.2-1.24.5-1.66.91-.42.41-.63.98-.63,1.69,0,.81.25,1.42.74,1.83.49.41,1.24.62,2.25.62.84,0,1.6-.16,2.3-.49.69-.33,1.34-.72,1.93-1.17Z"/>
    <path class="d" d="M316.9,551.91h-.13c-.36-.08-.7-.15-1.04-.18-.33-.04-.73-.06-1.19-.06-.74,0-1.45.16-2.13.49-.69.33-1.35.75-1.98,1.26v10.07h-2.39v-14.18h2.39v2.09c.95-.76,1.78-1.3,2.51-1.62.72-.32,1.46-.48,2.22-.48.42,0,.71.01.9.03.19.02.47.06.84.12v2.45Z"/>
    <path class="d" d="M339.91,563.49h-2.39v-8.07c0-.61-.03-1.2-.08-1.76-.05-.57-.17-1.02-.35-1.36-.19-.36-.47-.64-.84-.83-.36-.19-.89-.28-1.57-.28s-1.34.17-2.01.5c-.67.33-1.34.76-2.01,1.28.03.2.05.42.06.68.02.26.03.51.03.77v9.08h-2.39v-8.07c0-.63-.03-1.22-.08-1.78-.06-.56-.17-1.01-.35-1.35-.19-.36-.47-.64-.84-.82-.36-.18-.89-.27-1.57-.27s-1.31.16-1.96.48c-.66.32-1.31.73-1.96,1.23v10.59h-2.39v-14.18h2.39v1.57c.75-.62,1.49-1.1,2.23-1.45.74-.35,1.53-.52,2.37-.52.96,0,1.78.2,2.46.61.67.41,1.17.97,1.5,1.69.96-.81,1.84-1.4,2.64-1.76.8-.36,1.65-.54,2.55-.54,1.56,0,2.71.47,3.45,1.42.74.94,1.11,2.26,1.11,3.95v9.2Z"/>
    <path class="d" d="M356.67,556.41c0,2.31-.59,4.13-1.78,5.47-1.18,1.34-2.77,2.01-4.76,2.01s-3.6-.67-4.78-2.01c-1.18-1.34-1.77-3.16-1.77-5.47s.59-4.14,1.77-5.48c1.18-1.34,2.77-2.01,4.78-2.01s3.58.67,4.76,2.01c1.18,1.34,1.78,3.17,1.78,5.48ZM354.21,556.41c0-1.84-.36-3.2-1.08-4.09-.72-.89-1.72-1.34-3-1.34s-2.3.45-3.02,1.34c-.71.89-1.07,2.26-1.07,4.09s.36,3.12,1.08,4.04c.72.92,1.72,1.38,3.01,1.38s2.27-.46,2.99-1.36c.72-.91,1.08-2.26,1.08-4.06Z"/>
    <path class="d" d="M372.3,563.49h-2.39v-8.07c0-.65-.04-1.26-.11-1.83s-.22-1.02-.42-1.34c-.21-.36-.52-.62-.91-.79-.4-.17-.91-.26-1.55-.26s-1.33.16-2.04.48c-.71.32-1.39.73-2.04,1.23v10.59h-2.39v-14.18h2.39v1.57c.75-.62,1.51-1.1,2.31-1.45.8-.35,1.61-.52,2.45-.52,1.53,0,2.7.46,3.5,1.38.8.92,1.21,2.25,1.21,3.99v9.2Z"/>
    <path class="d" d="M388.99,549.31l-8.28,19.41h-2.55l2.64-5.92-5.65-13.5h2.59l4.35,10.51,4.39-10.51h2.5Z"/>
    <path class="d" d="M419.24,549.31l-3.69,14.18h-2.21l-3.64-10.93-3.62,10.93h-2.2l-3.73-14.18h2.49l2.6,10.98,3.54-10.98h1.97l3.63,10.98,2.46-10.98h2.4Z"/>
    <path class="d" d="M425.33,546.94h-2.69v-2.48h2.69v2.48ZM425.18,563.49h-2.39v-14.18h2.39v14.18Z"/>
    <path class="d" d="M437.34,563.36c-.45.12-.94.22-1.47.29-.53.08-1,.11-1.42.11-1.45,0-2.55-.39-3.3-1.17-.75-.78-1.13-2.03-1.13-3.75v-7.54h-1.61v-2.01h1.61v-4.08h2.39v4.08h4.93v2.01h-4.93v6.46c0,.75.02,1.33.05,1.75s.15.81.36,1.17c.19.34.44.59.77.74.33.16.82.23,1.49.23.39,0,.8-.06,1.22-.17s.73-.21.91-.29h.13v2.15Z"/>
    <path class="d" d="M452.16,563.49h-2.39v-8.07c0-.65-.04-1.26-.11-1.83s-.22-1.02-.42-1.34c-.21-.36-.52-.62-.91-.79-.4-.17-.91-.26-1.55-.26s-1.33.16-2.04.48c-.71.32-1.39.73-2.04,1.23v10.59h-2.39v-19.75h2.39v7.15c.75-.62,1.51-1.1,2.31-1.45.8-.35,1.61-.52,2.45-.52,1.53,0,2.7.46,3.5,1.38.8.92,1.21,2.25,1.21,3.99v9.2Z"/>
    <path class="d" d="M480.7,563.49h-2.51v-9.25h-9.43v9.25h-2.51v-18.9h2.51v7.41h9.43v-7.41h2.51v18.9Z"/>
    <path class="d" d="M497.42,563.49h-2.39v-1.57c-.8.63-1.57,1.12-2.31,1.46-.74.34-1.55.51-2.44.51-1.49,0-2.65-.46-3.48-1.36-.83-.91-1.24-2.25-1.24-4.01v-9.2h2.39v8.07c0,.72.03,1.33.1,1.85.07.51.21.95.43,1.31.23.37.52.64.89.81.36.17.89.25,1.59.25.62,0,1.29-.16,2.03-.48.73-.32,1.42-.73,2.05-1.23v-10.59h2.39v14.18Z"/>
    <path class="d" d="M522.89,563.49h-2.39v-8.07c0-.61-.03-1.2-.08-1.76-.05-.57-.17-1.02-.35-1.36-.19-.36-.47-.64-.84-.83-.36-.19-.89-.28-1.57-.28s-1.34.17-2.01.5c-.67.33-1.34.76-2.01,1.28.03.2.05.42.06.68.02.26.03.51.03.77v9.08h-2.39v-8.07c0-.63-.03-1.22-.08-1.78-.06-.56-.17-1.01-.35-1.35-.19-.36-.47-.64-.84-.82-.36-.18-.89-.27-1.57-.27s-1.31.16-1.96.48c-.66.32-1.31.73-1.96,1.23v10.59h-2.39v-14.18h2.39v1.57c.75-.62,1.49-1.1,2.23-1.45.74-.35,1.53-.52,2.37-.52.96,0,1.78.2,2.46.61.67.41,1.17.97,1.5,1.69.96-.81,1.84-1.4,2.64-1.76.8-.36,1.65-.54,2.55-.54,1.56,0,2.71.47,3.45,1.42.74.94,1.11,2.26,1.11,3.95v9.2Z"/>
    <path class="d" d="M538.58,563.49h-2.37v-1.51c-.21.14-.5.34-.86.6-.36.26-.71.46-1.05.62-.4.2-.85.36-1.37.49-.52.13-1.12.2-1.82.2-1.28,0-2.36-.42-3.25-1.27-.89-.85-1.33-1.92-1.33-3.24,0-1.07.23-1.94.69-2.61.46-.67,1.12-1.19,1.97-1.57.86-.38,1.9-.64,3.11-.77,1.21-.13,2.51-.24,3.9-.3v-.37c0-.54-.1-.99-.29-1.35-.19-.36-.46-.63-.82-.84-.34-.19-.75-.33-1.22-.39-.47-.07-.97-.1-1.49-.1-.63,0-1.32.08-2.09.25s-1.57.4-2.39.72h-.13v-2.42c.47-.13,1.14-.27,2.02-.42s1.75-.23,2.6-.23c1,0,1.87.08,2.61.25.74.17,1.38.45,1.92.84.53.39.94.89,1.22,1.51.28.62.42,1.38.42,2.3v9.62ZM536.21,560v-3.95c-.73.04-1.58.11-2.57.19-.99.08-1.77.21-2.34.37-.69.2-1.24.5-1.66.91-.42.41-.63.98-.63,1.69,0,.81.25,1.42.74,1.83.49.41,1.24.62,2.25.62.84,0,1.6-.16,2.3-.49.69-.33,1.34-.72,1.93-1.17Z"/>
    <path class="d" d="M555.11,563.49h-2.39v-8.07c0-.65-.04-1.26-.11-1.83s-.22-1.02-.42-1.34c-.21-.36-.52-.62-.91-.79-.4-.17-.91-.26-1.55-.26s-1.33.16-2.04.48c-.71.32-1.39.73-2.04,1.23v10.59h-2.39v-14.18h2.39v1.57c.75-.62,1.51-1.1,2.31-1.45.8-.35,1.61-.52,2.45-.52,1.53,0,2.7.46,3.5,1.38.8.92,1.21,2.25,1.21,3.99v9.2Z"/>
    <path class="d" d="M583.62,563.49h-3.11l-8.96-16.91v16.91h-2.35v-18.9h3.9l8.18,15.44v-15.44h2.35v18.9Z"/>
    <path class="d" d="M600.4,556.65h-10.45c0,.87.13,1.63.39,2.28s.62,1.18,1.08,1.59c.44.41.96.71,1.57.91.61.2,1.27.3,2,.3.96,0,1.94-.19,2.91-.58.98-.39,1.67-.76,2.09-1.14h.13v2.6c-.8.34-1.62.62-2.46.85s-1.72.34-2.64.34c-2.35,0-4.19-.64-5.51-1.91-1.32-1.27-1.98-3.08-1.98-5.43s.63-4.16,1.9-5.52c1.26-1.36,2.93-2.04,5-2.04,1.91,0,3.39.56,4.42,1.68,1.04,1.12,1.55,2.7,1.55,4.76v1.29ZM598.08,554.82c0-1.25-.32-2.22-.95-2.91-.62-.69-1.57-1.03-2.84-1.03s-2.3.38-3.05,1.13c-.76.75-1.19,1.69-1.29,2.81h8.12Z"/>
    <path class="d" d="M615.97,556.65h-10.45c0,.87.13,1.63.39,2.28s.62,1.18,1.08,1.59c.44.41.96.71,1.57.91.61.2,1.27.3,2,.3.96,0,1.94-.19,2.91-.58.98-.39,1.67-.76,2.09-1.14h.13v2.6c-.8.34-1.62.62-2.46.85s-1.72.34-2.64.34c-2.35,0-4.19-.64-5.51-1.91-1.32-1.27-1.98-3.08-1.98-5.43s.63-4.16,1.9-5.52c1.26-1.36,2.93-2.04,5-2.04,1.91,0,3.39.56,4.42,1.68,1.04,1.12,1.55,2.7,1.55,4.76v1.29ZM613.65,554.82c0-1.25-.32-2.22-.95-2.91-.62-.69-1.57-1.03-2.84-1.03s-2.3.38-3.05,1.13c-.76.75-1.19,1.69-1.29,2.81h8.12Z"/>
    <path class="d" d="M631.17,563.49h-2.39v-1.49c-.69.59-1.4,1.05-2.15,1.38s-1.55.5-2.42.5c-1.69,0-3.04-.65-4.03-1.96-1-1.3-1.49-3.11-1.49-5.42,0-1.2.17-2.27.51-3.21.34-.94.81-1.74,1.39-2.4.58-.64,1.25-1.13,2.01-1.47.77-.34,1.56-.51,2.38-.51.75,0,1.41.08,1.98.24.58.16,1.18.4,1.82.73v-6.14h2.39v19.75ZM628.78,560v-8.14c-.64-.29-1.22-.49-1.73-.6-.51-.11-1.06-.17-1.66-.17-1.34,0-2.38.47-3.12,1.4-.75.93-1.12,2.25-1.12,3.96s.29,2.96.86,3.84,1.5,1.31,2.77,1.31c.68,0,1.36-.15,2.06-.45.69-.3,1.34-.69,1.94-1.16Z"/>
    <path class="d" d="M646.07,559.4c0,1.29-.54,2.36-1.61,3.19-1.07.83-2.53,1.24-4.39,1.24-1.05,0-2.01-.12-2.89-.37-.88-.25-1.61-.52-2.2-.82v-2.68h.13c.75.57,1.59,1.02,2.51,1.35.92.33,1.81.5,2.65.5,1.05,0,1.87-.17,2.46-.51.59-.34.89-.87.89-1.6,0-.56-.16-.98-.48-1.27-.32-.29-.94-.53-1.85-.74-.34-.08-.78-.17-1.33-.27-.54-.1-1.04-.21-1.49-.33-1.24-.33-2.13-.81-2.65-1.45-.52-.64-.78-1.42-.78-2.36,0-.58.12-1.13.36-1.65.24-.52.61-.98,1.1-1.38.47-.4,1.08-.71,1.81-.95.73-.23,1.55-.35,2.46-.35.85,0,1.7.1,2.57.31.87.21,1.59.46,2.17.75v2.55h-.13c-.61-.45-1.35-.83-2.22-1.14-.87-.31-1.73-.46-2.56-.46s-1.61.17-2.21.5c-.6.33-.9.83-.9,1.49,0,.58.18,1.02.55,1.32.36.3.93.54,1.73.72.44.1.93.2,1.48.3.55.1,1,.2,1.37.28,1.11.25,1.96.69,2.56,1.31.6.63.9,1.46.9,2.49Z"/>
  </g>
  <circle class="f" cx="391.53" cy="277.02" r="24.38"/>
</svg>