<svg id="Group_67" data-name="Group 67" xmlns="http://www.w3.org/2000/svg" xmlns:xlink="http://www.w3.org/1999/xlink" width="122" height="122" viewBox="0 0 122 122">
  <defs>
    <clipPath id="clip-path">
      <rect id="Rectangle_13" data-name="Rectangle 13" width="122" height="122" fill="#fff"/>
    </clipPath>
    <linearGradient id="linear-gradient" y1="1" x2="1.043" y2="0.151" gradientUnits="objectBoundingBox">
      <stop offset="0" stop-color="#f39936"/>
      <stop offset="1" stop-color="#5661ef"/>
    </linearGradient>
  </defs>
  <g id="Group_14" data-name="Group 14" clip-path="url(#clip-path)">
    <g id="Group_22" data-name="Group 22" transform="translate(0 0)">
      <path id="Path_29" data-name="Path 29" d="M205.838,266.316v39.152H183.7V265.623l10.177-17.687a1.027,1.027,0,0,1,1.783,0l9.832,17.087a2.6,2.6,0,0,1,.345,1.293" transform="translate(-136.413 -183.468)" fill="#fff" opacity="0.195"/>
      <path id="Path_30" data-name="Path 30" d="M33.767,240.319,0,259.9l11.069,19.251L44.836,259.57a2.579,2.579,0,0,0,.943-.947L55.6,241.53a1.034,1.034,0,0,0-.891-1.55l-19.653-.006a2.568,2.568,0,0,0-1.288.346" transform="translate(0 -177.946)" fill="#fff" opacity="0.195"/>
      <path id="Path_31" data-name="Path 31" d="M45.365,100.021,11.6,80.445.529,99.7,34.3,119.271a2.568,2.568,0,0,0,1.288.346l19.653-.006a1.034,1.034,0,0,0,.891-1.551l-9.821-17.093a2.581,2.581,0,0,0-.943-.947" transform="translate(-0.393 -59.652)" fill="#fff" opacity="0.195"/>
      <path id="Path_32" data-name="Path 32" d="M259.908,241.081l33.767,19.576-11.069,19.251-33.767-19.576a2.579,2.579,0,0,1-.943-.947l-9.821-17.093a1.034,1.034,0,0,1,.891-1.55l19.653-.006a2.569,2.569,0,0,1,1.288.346" transform="translate(-176.688 -178.511)" fill="#fff" opacity="0.195"/>
      <path id="Path_33" data-name="Path 33" d="M268.311,89.022l33.767-19.576L313.147,88.7,279.38,108.273a2.568,2.568,0,0,1-1.288.346l-19.653-.006a1.034,1.034,0,0,1-.891-1.551l9.821-17.093a2.581,2.581,0,0,1,.943-.947" transform="translate(-191.147 -51.496)" fill="url(#linear-gradient)"/>
      <path id="Path_34" data-name="Path 34" d="M206.838,39.152V0H184.7V39.152a2.6,2.6,0,0,0,.345,1.293l9.832,17.087a1.027,1.027,0,0,0,1.783,0l9.832-17.087a2.6,2.6,0,0,0,.345-1.293" transform="translate(-137.155)" fill="#fff" opacity="0.195"/>
    </g>
  </g>
</svg>
