<?xml version="1.0" encoding="UTF-8"?>
<svg id="Group_67" data-name="Group 67" xmlns="http://www.w3.org/2000/svg" version="1.1" xmlns:xlink="http://www.w3.org/1999/xlink" viewBox="0 0 122 122">
  <defs>
    <style>
      .cls-1 {
        fill: #aaa;
        isolation: isolate;
        opacity: .2;
      }

      .cls-1, .cls-2, .cls-3, .cls-4 {
        stroke-width: 0px;
      }

      .cls-2 {
        fill: url(#linear-gradient);
      }

      .cls-3 {
        fill: none;
      }

      .cls-5 {
        clip-path: url(#clippath);
      }

      .cls-4 {
        fill: #fff;
      }
    </style>
    <clipPath id="clippath">
      <rect class="cls-3" y="0" width="122" height="122"/>
    </clipPath>
    <linearGradient id="linear-gradient" x1="-37.3" y1="160" x2="-36.3" y2="160.9" gradientTransform="translate(2146.3 6326) scale(55.7 -39.2)" gradientUnits="userSpaceOnUse">
      <stop offset="0" stop-color="#f39936"/>
      <stop offset="1" stop-color="#5661ef"/>
    </linearGradient>
  </defs>
  <rect class="cls-4" width="122" height="122" rx="7.6" ry="7.6"/>
  <g class="cls-5">
    <path id="Path_29" data-name="Path 29" class="cls-1" d="M69.4,82.8v39.2h-22.1v-39.8l10.2-17.7c.3-.5.9-.7,1.4-.4.2,0,.3.2.4.4l9.8,17.1c.2.4.3.8.3,1.3"/>
    <path id="Path_30" data-name="Path 30" class="cls-1" d="M33.8,62.4L0,82l11.1,19.3,33.8-19.6c.4-.2.7-.6.9-.9l9.8-17.1c.3-.5.1-1.1-.4-1.4-.2,0-.3-.1-.5-.1h-19.7c-.5,0-.9.1-1.3.3"/>
    <path id="Path_31" data-name="Path 31" class="cls-1" d="M45,40.4L11.2,20.8.1,40l33.8,19.6c.4.2.8.3,1.3.3h19.7c.6,0,1-.5,1-1,0-.2,0-.4-.1-.5l-9.8-17.1c-.2-.4-.6-.7-.9-.9"/>
    <path id="Path_32" data-name="Path 32" class="cls-1" d="M83.2,62.6l33.8,19.6-11.1,19.3-33.8-19.6c-.4-.2-.7-.6-.9-.9l-9.8-17.1c-.3-.5-.1-1.1.4-1.4.2,0,.3-.1.5-.1h19.7c.5,0,.9.1,1.3.3"/>
    <path id="Path_33" data-name="Path 33" class="cls-2" d="M77.2,37.5l33.8-19.6,11.1,19.3-33.8,19.6c-.4.2-.8.3-1.3.3h-19.7c-.6,0-1-.5-1-1,0-.2,0-.4.1-.5l9.8-17.1c.2-.4.6-.7.9-.9"/>
    <path id="Path_34" data-name="Path 34" class="cls-1" d="M69.7,39.2V0h-22.1v39.2c0,.5.1.9.3,1.3l9.8,17.1c.3.5.9.7,1.4.4.2,0,.3-.2.4-.4l9.8-17.1c.2-.4.3-.8.3-1.3"/>
  </g>
</svg>