<?xml version="1.0" encoding="utf-8"?>
<!-- Generator: Adobe Illustrator 27.9.0, SVG Export Plug-In . SVG Version: 6.00 Build 0)  -->
<svg version="1.1" id="Layer_1" xmlns="http://www.w3.org/2000/svg" xmlns:xlink="http://www.w3.org/1999/xlink" x="0px" y="0px"
	 viewBox="0 0 1001.2 962.7" style="enable-background:new 0 0 1001.2 962.7;" xml:space="preserve">
<style type="text/css">
	.st0{opacity:0.24;}
	.st1{fill:#BCBCBC;}
</style>
<g id="Group_5131" transform="translate(17808.596 6401.588)" class="st0">
	<path class="st1" d="M-17275.1-5531.6c-23.1,0-46.2-4-68.5-13.9c-29.4-13-52.9-33.1-74-52.9c-2.4-2.2-4.7-4.5-7.1-6.7
		c-13.6-13.1-26.4-25.4-45.2-32.7c-11.1-4.3-23-7.6-34.5-10.8c-9.8-2.7-19.9-5.5-29.5-8.9c-27-9.4-52.2-23-74.9-40.5
		c-48.9-38.1-86.8-92.8-112.4-162.4c-10.3-27.8-20.5-60.6-19-93c1.4-28.6,7.2-59.9,17.3-92.9c20.2-65.7,58.4-126.6,110.7-176.1
		c34.2-32.3,73.2-59.3,126.8-37.9c43.9,17.5,77.9,49.6,110.8,80.7c10.6,10,20.5,19.4,30.9,28.4c1.9,1.6,3.7,3.3,5.6,4.9
		c28,24.6,56.9,50,101.3,44.7c2.7-0.3,5.4-0.7,8.2-1c35.2-4.3,68.5-8.3,103.6-5.2c56.2,5.1,108.7,19.6,156.2,43.2
		c25.6,12.8,44.1,25.9,56.6,40.3c15.8,18.1,21.9,38.5,18.2,60.5c-4.3,25.6-18.1,50.1-31.4,73.8c-6.5,11.6-13.2,23.6-18.7,35.4
		c-19.8,42.7-24.5,85.6-26.5,122c-1.8,31.4-7.9,71.7-40.1,105.8c-5.7,6.1-12.5,13.1-19.8,18.8c-7.4,5.8-15.7,8.3-24.4,11
		c-2.1,0.6-4.2,1.3-6.4,2c-21.7,7.2-43.3,15.9-64.1,24.3c-7.6,3.1-15.4,6.2-23.2,9.3l0,0
		C-17188-5545.7-17231.6-5531.6-17275.1-5531.6z M-17522.8-6266.8c-35,0-63.2,21.1-88.7,45.2c-52.1,49.3-90.3,110.1-110.4,175.6
		c-10.1,32.9-15.9,64.1-17.3,92.6c-1.5,32.2,8.7,64.9,18.9,92.6c25.6,69.5,63.3,124,112.1,162c22.6,17.4,47.7,31,74.6,40.3
		c9.6,3.4,19.7,6.2,29.5,8.9c11.5,3.2,23.4,6.5,34.6,10.8c19,7.3,32.5,20.3,45.5,32.9c2.3,2.2,4.7,4.5,7.1,6.7
		c21,19.7,44.5,39.7,73.8,52.7c22.2,9.8,45.1,13.8,68.1,13.8c43.3,0,86.9-14.1,126.2-29.6l0,0c7.7-3,15.6-6.2,23.1-9.3
		c20.9-8.4,42.4-17.1,64.2-24.4c2.2-0.7,4.3-1.4,6.4-2c8.6-2.7,16.8-5.2,24-10.9c7.3-5.7,14-12.6,19.7-18.6
		c32-33.8,38.1-74,39.8-105.2c2-36.4,6.7-79.4,26.5-122.3c5.5-11.9,12.2-23.9,18.8-35.5c13.3-23.6,27-48,31.3-73.4
		c6.6-38.9-17.7-71.6-74.2-99.8c-47.4-23.5-99.8-38-155.8-43.1c-35-3.1-68.2,0.9-103.4,5.2c-2.7,0.3-5.4,0.7-8.2,1
		c-4.1,0.5-8.1,0.7-11.9,0.7c-38.3,0-64.7-23.2-90.2-45.6c-1.9-1.6-3.7-3.3-5.6-4.9c-10.3-9-20.3-18.5-30.9-28.4
		c-32.8-31-66.7-63-110.5-80.5C-17499-6264.5-17511.3-6266.8-17522.8-6266.8z"/>
	<path class="st1" d="M-17223-5820.7c-7.2,0-14.3-0.6-20.7-1.3l0,0c-82.5-9-143.9-72.9-171.4-124.8c-0.5-1-1.1-2.1-1.7-3.2
		c-8.8-16.4-25.2-47-10.6-64.7c14-17,43.9-3.7,58.3,2.8l1.2,0.5c58.5,26.1,120.7,72.3,166.2,123.6l1.6,1.8
		c10.9,12.2,29.1,32.5,18.4,49.8C-17189.5-5823.9-17206.3-5820.7-17223-5820.7z M-17407.7-6022.1c-7.4,0-14.2,2.1-19,7.9
		c-14.2,17.2,2,47.4,10.7,63.6c0.6,1.1,1.2,2.2,1.7,3.2c27.4,51.7,88.5,115.3,170.7,124.3l0,0c12.1,1.3,49.1,5.4,61-13.8
		c10.3-16.6-7.6-36.6-18.3-48.6l-1.6-1.8c-45.5-51.2-107.5-97.3-165.9-123.3l-1.2-0.5
		C-17378.7-6015.2-17394.2-6022.1-17407.7-6022.1z"/>
	<path class="st1" d="M-17263.2-5868.9c-2.9,0-6.2-0.3-9.9-0.8l0,0c-41.1-6.3-76.7-40-92.4-68.6c-6.8-12.4-10.7-28.5-4-36.4
		c4.8-5.7,13.9-6.4,27.1-1.9c33.2,11.2,71.4,39.8,92.8,69.4c8.3,11.5,10.7,22.8,6.2,30
		C-17245.8-5873.2-17251.3-5868.9-17263.2-5868.9z M-17272.9-5870.7c14.4,2.2,24.5-0.3,28.7-7.1c4.2-6.9,1.9-17.7-6.2-28.9
		c-21.3-29.5-59.3-57.8-92.3-69c-12.6-4.2-21.6-3.7-26,1.6c-6.4,7.6-2.5,23.2,4.1,35.3C-17349-5910.4-17313.6-5877-17272.9-5870.7
		L-17272.9-5870.7z"/>
	<path class="st1" d="M-17226.3-5587.9c-33.4,0-64.1-5.5-92.4-16.4c-16.3-6.3-31.5-14.3-46.2-22.1c-7.4-3.9-15.1-8-22.9-11.8
		c-19.9-9.8-36.4-18.2-52.4-29.6c-16.4-11.8-34.5-22.2-51.9-32.3c-23.7-13.6-48.1-27.7-68.9-45.5c-45.1-38.6-80.3-88.7-104.5-148.9
		c-12.4-30.9-19.6-58.6-22-84.6s5.6-53.1,13.2-76.5c12.4-38.1,37-93.1,83.6-138.1c19.7-19,41.6-30.2,65.1-33.2
		c20.2-2.6,42.3,0.9,65.5,10.3c42.7,17.2,81.7,50.3,113.1,76.8c3.9,3.3,7.7,6.5,11.3,9.6c4.2,3.5,8.6,7.4,13.2,11.4
		c24.6,21.6,55.1,48.6,91.6,49.8c11.1,0.4,22.4,0.3,33.3,0.2c19.3-0.1,39.3-0.3,59,2c47.5,5.6,91.8,18.4,124.5,36.3
		c42,22.9,65.1,52.9,68.4,89.2c2.2,24.1-3.6,49-9.3,73c-2.4,10-4.8,20.3-6.6,30.4c-5.6,31.6-6,63.5-6.3,94.3c0,3.4-0.1,6.9-0.1,10.3
		c-0.4,32.9-6,60.4-31.8,87.9c-10.7,11.4-25.4,15.6-40.8,20c-2.5,0.7-4.9,1.4-7.4,2.1c-33.9,10.1-62,17.8-88.6,24.1l0,0
		C-17168.7-5591.7-17198.5-5587.9-17226.3-5587.9z M-17512.5-6226.9c-28.5,0-54.1,11.2-77.5,33.8c-46.5,44.9-71,99.7-83.4,137.7
		c-7.6,23.3-15.5,50.3-13.1,76.1c2.4,25.9,9.5,53.5,21.9,84.3c24.1,60,59.2,110,104.2,148.5c20.7,17.7,45.1,31.8,68.8,45.4
		c17.5,10.1,35.5,20.5,52,32.3c15.9,11.4,32.3,19.7,52.2,29.5c7.8,3.8,15.5,7.9,22.9,11.8c14.7,7.8,29.9,15.8,46.1,22.1
		c51.8,20,111.2,21.7,181.5,5l0,0c26.5-6.3,54.7-13.9,88.5-24.1c2.5-0.7,4.9-1.4,7.4-2.2c15.3-4.4,29.8-8.5,40.4-19.8
		c25.6-27.2,31.1-54.6,31.5-87.2c0-3.4,0.1-6.9,0.1-10.3c0.3-30.9,0.7-62.8,6.3-94.5c1.8-10.1,4.2-20.4,6.6-30.5
		c5.7-24,11.5-48.7,9.3-72.7c-3.3-36-26.2-65.7-67.9-88.4c-32.7-17.8-76.8-30.6-124.2-36.1c-19.6-2.3-39.5-2.2-58.8-2
		c-10.9,0.1-22.2,0.1-33.4-0.2c-36.8-1.2-67.6-28.3-92.2-50c-4.6-4-8.9-7.9-13.1-11.4c-3.6-3-7.4-6.2-11.3-9.6
		c-31.3-26.5-70.2-59.6-112.8-76.7C-17478.8-6223.2-17496.1-6226.9-17512.5-6226.9z"/>
	<path class="st1" d="M-17185.6-5643.2c-87.9,0-173.9-23.8-229.3-65.2c-102.3-76.3-165.5-147.9-198.9-225.1
		c-17.6-40.7-33.8-88.7-20.2-136.3c13.8-48.7,34.6-84.3,61.7-105.9c81.4-64.8,176.9,8.1,233.9,51.6l1.9,1.5
		c6.8,5.2,13.5,10.7,20.6,16.4c24.5,20,49.9,40.6,80.1,50.9c13.8,4.7,29.7,6.6,45,8.4c9.7,1.1,19.6,2.3,28.9,4.2
		c80.6,16.2,140.1,57.6,163.2,113.5c10.5,25.5,13.2,53.4,15.8,80.4c0.3,2.9,0.6,5.8,0.8,8.7c1.1,10.8,2.4,21.7,3.7,32.3
		c2.4,19.7,4.9,40,5.8,60.2c1.1,27.8-1.6,55.6-28.9,71.3c-33.3,19.1-82,24.7-121.2,29.1c-2.9,0.3-5.8,0.7-8.6,1l0,0
		C-17149.3-5644.2-17167.5-5643.2-17185.6-5643.2z M-17500.8-6200.4c-24,0-48.1,7.2-71,25.5c-26.9,21.4-47.6,56.9-61.4,105.4
		c-13.4,47.3,2.7,95.1,20.2,135.6c33.4,77.1,96.5,148.5,198.6,224.7c66.7,49.8,177.8,74.1,283,61.9l0.1,0.5l-0.1-0.5
		c2.8-0.3,5.7-0.6,8.6-1c39-4.4,87.6-9.9,120.8-29c26.9-15.4,29.5-42.9,28.4-70.4c-0.8-20.1-3.3-40.5-5.7-60.1
		c-1.3-10.6-2.6-21.5-3.7-32.3c-0.3-2.9-0.6-5.8-0.8-8.7c-2.6-26.9-5.2-54.7-15.7-80.1c-22.9-55.6-82.1-96.7-162.4-112.9
		c-9.3-1.9-19.2-3-28.9-4.2c-15.4-1.8-31.3-3.7-45.2-8.4c-30.4-10.4-55.8-31.1-80.4-51.1c-7.1-5.8-13.8-11.3-20.6-16.4l-1.9-1.5
		C-17379.8-6154.4-17440.2-6200.4-17500.8-6200.4z"/>
	<path class="st1" d="M-17193.1-5777c-8.6,0-16-0.4-20.9-0.7l0,0c-55.6-3.3-107.4-23.5-154.1-59.8c-40.1-31.3-73.9-72.8-97.7-120.1
		c-0.7-1.4-1.5-3-2.4-4.7c-12-23.5-37.1-72.4-12-95.9c23.6-22.2,70.4,1.7,92.8,13.2c1,0.5,2,1,3,1.5c43.9,22.3,82.8,51.7,122.1,82.4
		l6.4,5c32.9,25.7,66.9,52.2,96.6,80.7c1.3,1.2,2.6,2.5,4.1,3.9c17.2,16.3,46.1,43.6,33.9,68.1
		C-17132.7-5780.9-17168-5777-17193.1-5777z M-17214-5778.8c19,1.1,76.9,4.6,91.7-25.1c11.9-23.8-16.7-50.8-33.7-66.9
		c-1.4-1.4-2.8-2.7-4.1-3.9c-29.7-28.5-63.6-55-96.5-80.7l-6.4-5c-39.2-30.7-78.1-60.1-121.9-82.3c-0.9-0.5-1.9-1-3-1.5
		c-22.2-11.4-68.5-35.1-91.7-13.4c-24.5,23,0.3,71.4,12.2,94.7c0.9,1.7,1.7,3.3,2.4,4.7
		C-17423.8-5876.3-17336.2-5786.1-17214-5778.8L-17214-5778.8z"/>
	<path class="st1" d="M-17177.3-5708.6c-83.2,0-159.8-22.5-216.4-63.7c-75.3-54.7-124.2-136.2-152-194.9c-1-2.1-2-4.3-3.2-6.6
		c-19.1-39.9-54.7-114.1-0.9-148c24.7-15.5,55.9-17.7,92.8-6.4c29.1,8.9,56.3,24.2,81.4,39.4c47.2,28.6,97,62.3,148.1,100
		c40.8,30.1,83.5,62.9,118.4,98.4c19.4,19.6,36.9,41.2,51.9,64.3c1.1,1.6,2.1,3.3,3.3,5c10.3,15.7,23.1,35.2,23.2,54
		c0.1,22.6-17.9,38.9-53.6,48.5c-21.7,5.8-49,9-83.4,9.7v-0.5v0.5C-17170.9-5708.6-17174.1-5708.6-17177.3-5708.6z M-17500.4-6134.2
		c-18.3,0-34.6,4.5-48.8,13.3c-53.1,33.4-17.7,107.1,1.3,146.7c1.1,2.3,2.2,4.5,3.2,6.6c27.7,58.6,76.5,139.9,151.7,194.5
		c58.7,42.7,138.8,65.2,225.4,63.4l0,0c89.2-1.8,136.3-21.6,136.1-57.2c-0.1-18.5-12.8-37.9-23.1-53.4c-1.1-1.7-2.2-3.4-3.3-5
		c-15-23-32.5-44.6-51.8-64.2c-34.9-35.5-77.4-68.2-118.3-98.3c-51-37.7-100.9-71.3-148-99.9c-25.1-15.2-52.2-30.4-81.2-39.3
		C-17472.7-6131.9-17487.1-6134.2-17500.4-6134.2z"/>
	<path class="st1" d="M-17184.1-5739.2c-2.9,0-5.8,0-8.8-0.1l0,0c-72.9-1.3-139-25.1-196.6-70.6c-48.1-38-89.6-91.4-120.1-154.3
		c-0.9-2-2-4.2-3.2-6.6c-15.4-31.1-47.5-95.8-9.1-120.9c39.7-26,103,8.7,133.4,25.3l0.9,0.5c86.3,47.3,159.5,112.9,230.2,176.3
		c5.9,5.3,11.7,10.5,17.5,15.7c2.7,2.4,5.8,5.1,9.1,7.9c25.2,21.7,63.2,54.5,54.7,86.8
		C-17083.2-5752.6-17119.5-5739.2-17184.1-5739.2z M-17193-5740.2c69.6,1.3,108.6-11.9,115.8-39.1c8.3-31.7-29.4-64.2-54.4-85.8
		c-3.3-2.8-6.3-5.5-9.1-7.9c-5.8-5.2-11.7-10.4-17.5-15.7c-70.7-63.4-143.7-128.9-230-176.1l-0.9-0.5c-30.2-16.6-93.2-51-132.3-25.4
		c-37.7,24.7-5.9,88.8,9.4,119.6c1.2,2.4,2.3,4.6,3.2,6.6C-17441-5824.4-17325.9-5742.6-17193-5740.2L-17193-5740.2z"/>
	<path class="st1" d="M-17170.7-5670.5c-40.2,0-78.1-4.1-113.1-12.3c-46.8-10.9-87.1-28.9-119.7-53.5
		c-34.8-26.2-63.1-59.4-90.4-91.6l-4-4.7c-35-41.1-62-82.7-80.4-123.7c-11.3-25.2-26.7-63.1-29.2-100.2
		c-2.9-42.1,11.3-74.5,42.2-96.3c30.4-21.5,67.9-24.6,111.3-9.4c35.5,12.5,68.3,34.3,96.2,53.9c11,7.7,22.1,15.9,32.8,23.8
		c20.4,15.1,41.6,30.7,63.9,44.3c15.5,9.4,31.9,15.9,49.2,22.8c3.2,1.3,6.4,2.5,9.6,3.8c55.3,22.2,106.4,61.8,140.2,108.5
		c32.6,45.1,55.9,103.4,62.2,156c3.2,26.5-5.2,43-28.1,55.2c-34.1,18.2-77.1,21.3-118.2,23v-0.5v0.5
		C-17154.4-5670.7-17162.6-5670.5-17170.7-5670.5z M-17504.7-6170.6c-22.2,0-42.3,6.2-59.9,18.7c-30.6,21.6-44.7,53.7-41.8,95.4
		c2.5,37,17.9,74.7,29.1,99.9c18.4,40.9,45.3,82.5,80.2,123.5l4,4.7c27.3,32.1,55.5,65.3,90.2,91.4c61.4,46.2,152.5,69.3,256.7,65.1
		l0,0c41-1.7,83.9-4.8,117.8-22.8c22.4-12,30.7-28.2,27.6-54.2c-6.3-52.4-29.4-110.5-62-155.5c-33.7-46.6-84.6-86-139.7-108.1
		c-3.2-1.3-6.4-2.6-9.6-3.8c-17.4-6.9-33.7-13.4-49.4-22.8c-22.4-13.5-43.5-29.2-64-44.3c-10.7-7.9-21.7-16.1-32.7-23.8
		c-27.9-19.5-60.6-41.3-96-53.8C-17472.1-6167.5-17489-6170.6-17504.7-6170.6z"/>
</g>
</svg>
